<?xml version="1.0" encoding="UTF-8" standalone="no"?>
<!-- Created with Inkscape (http://www.inkscape.org/) -->

<svg
   width="100"
   height="100"
   viewBox="0 0 26.458333 26.458334"
   version="1.1"
   id="svg2922"
   inkscape:version="1.1.2 (b8e25be833, 2022-02-05)"
   sodipodi:docname="bootstrap.svg"
   xmlns:inkscape="http://www.inkscape.org/namespaces/inkscape"
   xmlns:sodipodi="http://sodipodi.sourceforge.net/DTD/sodipodi-0.dtd"
   xmlns="http://www.w3.org/2000/svg"
   xmlns:svg="http://www.w3.org/2000/svg">
  <sodipodi:namedview
     id="namedview2924"
     pagecolor="#505050"
     bordercolor="#ffffff"
     borderopacity="1"
     inkscape:pageshadow="0"
     inkscape:pageopacity="0"
     inkscape:pagecheckerboard="1"
     inkscape:document-units="mm"
     showgrid="false"
     units="px"
     inkscape:zoom="4.0718557"
     inkscape:cx="66.677215"
     inkscape:cy="46.0478"
     inkscape:window-width="1920"
     inkscape:window-height="1001"
     inkscape:window-x="-9"
     inkscape:window-y="-9"
     inkscape:window-maximized="1"
     inkscape:current-layer="layer1" />
  <defs
     id="defs2919" />
  <g
     inkscape:label="Layer 1"
     inkscape:groupmode="layer"
     id="layer1">
    <path
       style="fill:#000080;fill-opacity:1;stroke:none;stroke-width:0.264703;stroke-miterlimit:4;stroke-dasharray:none;stroke-opacity:1"
       d="m 44.940022,16.975696 c -0.93482,-0.26159 -3.73036,-1.01177 -4.94992,-1.32832 -0.55029,-0.14283 -1.31334,-0.35439 -1.69568,-0.47013 l -0.69517,-0.21044 -0.12358,-1.28624 c -0.068,-0.70743 -0.23847,-2.58955 -0.37888,-4.1824701 -0.1404,-1.59293 -0.30495,-3.29907 -0.36567,-3.79143 -0.0607,-0.49236 -0.22924,-2.34068 -0.3745,-4.10738 -0.14526,-1.76670034 -0.28989,-3.3669103 -0.32141,-3.5560203 -0.0628,-0.37704 -0.36201,-3.54652 -0.3627,-3.84253 -6.5e-4,-0.17429 0.56164,-0.18431 10.3321,-0.18431 h 10.33253 l -0.0649,0.25868 c -0.0357,0.14228 -0.20735,1.88397 -0.38142,3.87042 -0.17408,1.98644996 -0.34024,3.7539103 -0.36926,3.9276903 -0.029,0.17377 -0.19735,1.95101 -0.37408,3.94941 -0.31342,3.54419 -0.8077,8.8832901 -0.82535,8.9153501 -0.0312,0.0566 -0.85969,0.30868 -1.85189,0.56338 -0.63717,0.16357 -1.89308,0.49592 -2.79091,0.73857 -4.01682,1.08558 -3.67747,1.0329 -4.73929,0.73577 z m 2.46856,-4.41356 c 0.75654,-0.22629 1.89685,-0.56187 2.53402,-0.74573 0.63717,-0.18385 1.21372,-0.35113 1.28123,-0.37172 0.0715,-0.0218 0.14198,-0.33724 0.1688,-0.75505 0.0253,-0.39468 0.17076,-2.1394001 0.32317,-3.8771301 0.15241,-1.73775 0.27787,-3.21877 0.27879,-3.29118 0.001,-0.10205 -0.6435,-0.13246 -2.86821,-0.13527 l -2.8699,-0.004 0.73723,-0.30076 c 0.40547,-0.16541 1.14006,-0.47678 1.63242,-0.69194 0.49235,-0.21514 1.11087,-0.47723 1.37448,-0.58241 0.57914,-0.23108 1.8819,-0.80878034 2.10099,-0.93167034 0.10614,-0.0595 0.18189,-0.34414 0.23084,-0.86731 0.0401,-0.42828 0.0959,-1.02786996 0.12412,-1.33240996 l 0.0513,-0.5537 -6.60114,0.0271 c -6.5317,0.0268 -6.60087,0.0293 -6.57518,0.23775 0.0143,0.11586 0.0823,0.72010996 0.15119,1.34279996 l 0.12521,1.13216 h 3.11366 3.11366 l -0.42127,0.20048004 c -0.2317,0.11025 -0.82411,0.36698 -1.31647,0.5705003 -2.40242,0.99304 -3.5594,1.47814 -3.88361,1.62832 l -0.35548,0.16467 0.075,1.21774 c 0.0412,0.66975 0.0974,1.25394 0.12473,1.29821 0.0274,0.0443 2.03744,0.0805 4.46686,0.0805 h 4.41711 l -6.5e-4,0.60558 c -6.4e-4,0.33306 -0.0307,1.06121 -0.0676,1.61809 l -0.0671,1.01253 -0.43265,0.10612 c -0.23796,0.0584 -0.87869,0.23735 -1.42383,0.39775 l -0.99117,0.2916301 -1.3916,-0.3465301 -1.39159,-0.34653 -0.0719,-0.88667 c -0.0396,-0.48767 -0.098,-0.95451 -0.12981,-1.03741 -0.0461,-0.12006 -0.33594,-0.15075 -1.42407,-0.15075 h -1.36623 l 0.0546,0.28962 c 0.03,0.15929 0.11217,1.08359 0.1825,2.05399 l 0.12787,1.7643501 0.43144,0.1132 c 0.2373,0.0622 0.90538,0.25572 1.48463,0.42993 0.57924,0.17421 1.5271,0.45827 2.10634,0.63125 0.57925,0.17297 1.10057,0.33108 1.1585,0.35134 0.20714,0.0725 0.32054,0.0483 1.67868,-0.35797 z"
       id="path188044" />
    <g
       id="g196034"
       transform="matrix(0.68259391,0,0,0.68259391,-153.5011,-436.78941)">
      <path
         style="opacity:1;fill:#563d7c;fill-opacity:1;stroke:none;stroke-width:1.16257;stroke-miterlimit:4;stroke-dasharray:none;stroke-opacity:1"
         d="m 871.91277,2559.0755 c 0,-0.2544 -0.40401,-0.4625 -0.89781,-0.4625 -0.49379,0 -1.02645,-0.2082 -1.18368,-0.4626 -0.15723,-0.2544 -0.66761,-0.4625 -1.13419,-0.4625 -0.46658,0 -0.96813,-0.3122 -1.11457,-0.6938 -0.14643,-0.3816 -0.53323,-0.6939 -0.85954,-0.6939 -1.64945,0 -7.7617,-7.114 -7.7617,-9.0338 0,-0.3739 -0.20815,-0.6798 -0.46255,-0.6798 -0.25441,0 -0.46255,-0.5055 -0.46255,-1.1233 0,-0.6179 -0.31223,-1.4356 -0.69383,-1.8172 -0.60833,-0.6083 -0.69383,-6.9622 -0.69383,-51.5582 0,-46.3074 0.0666,-50.89 0.74388,-51.1499 0.5414,-0.2078 0.69302,-0.7212 0.55699,-1.8864 -0.12025,-1.03 0.0269,-1.6831 0.41249,-1.831 0.32967,-0.1266 0.5994,-0.6069 0.5994,-1.0676 0,-0.4606 0.4163,-1.1375 0.92511,-1.5043 0.50881,-0.3667 0.92511,-0.9375 0.92511,-1.2684 0,-0.8583 4.41416,-5.2073 5.28534,-5.2073 0.40032,0 0.72785,-0.2082 0.72785,-0.4626 0,-0.2544 0.32709,-0.4625 0.72687,-0.4625 0.92873,0 2.19093,-1.2455 1.83912,-1.8147 -0.14758,-0.2388 -0.0568,-0.5649 0.20178,-0.7247 0.25855,-0.1598 0.4701,-0.07 0.4701,0.1993 0,0.2694 0.83259,0.4899 1.85021,0.4899 1.54185,0 1.85021,-0.1542 1.85021,-0.9251 0,-0.514 0.30837,-0.9251 0.69383,-0.9251 0.38161,0 0.69383,0.2081 0.69383,0.4625 0,0.2544 0.73135,0.4626 1.62522,0.4626 0.89386,0 2.06588,0.2602 2.60447,0.5782 0.78341,0.4625 1.02115,0.4625 1.18866,0 0.30006,-0.8286 21.46077,-0.8286 22.86411,0 0.78341,0.4625 1.02114,0.4625 1.18865,0 0.11517,-0.318 0.69507,-0.5782 1.28868,-0.5782 0.59361,0 1.17352,0.2602 1.28868,0.5782 0.16751,0.4625 0.40524,0.4625 1.18865,0 1.1742,-0.6933 2.84203,-0.7612 2.84203,-0.1157 0,0.2544 0.31223,0.4626 0.69383,0.4626 0.38161,0 0.69383,-0.2082 0.69383,-0.4626 0,-0.722 19.64725,-0.6131 20.88161,0.1157 0.78341,0.4625 1.02114,0.4625 1.18865,0 0.2721,-0.7514 2.30983,-0.7514 2.5621,0 0.15161,0.4515 0.46404,0.4344 1.42621,-0.078 1.06391,-0.5668 1.40023,-0.5668 2.46415,0 0.96217,0.5126 1.27459,0.5297 1.4262,0.078 0.14739,-0.439 2.62586,-0.5782 10.29321,-0.5782 7.65922,0 10.14967,0.1397 10.30847,0.5782 0.16751,0.4625 0.40524,0.4625 1.18865,0 1.1742,-0.6933 2.84203,-0.7612 2.84203,-0.1157 0,0.2544 0.31222,0.4626 0.69383,0.4626 0.38161,0 0.69383,-0.2082 0.69383,-0.4626 0,-0.2544 1.04074,-0.4625 2.31277,-0.4625 1.27202,0 2.31276,0.2081 2.31276,0.4625 0,0.9341 1.32968,0.4296 1.52378,-0.5782 0.19663,-1.0209 0.20165,-1.0196 0.26344,0.065 0.0606,1.0639 0.16268,1.0952 2.71371,0.8319 1.55297,-0.1603 2.38392,-0.1087 2.00647,0.1246 -0.54156,0.3347 -0.52697,0.5154 0.0916,1.134 0.40469,0.4047 1.0629,0.7358 1.46267,0.7358 0.39978,0 0.72687,0.2081 0.72687,0.4625 0,0.2544 0.32753,0.4626 0.72785,0.4626 0.92902,0 5.28534,4.3762 5.28534,5.3094 0,0.3871 0.20815,0.7038 0.46256,0.7038 0.2544,0 0.46255,0.4012 0.46255,0.8915 0,0.4904 0.46834,1.2709 1.04074,1.7346 0.75253,0.6096 1.00218,1.2382 0.90149,2.2701 -0.0848,0.8687 0.14146,1.66 0.57819,2.0225 0.64017,0.5313 0.71745,6.0025 0.71745,50.7904 0,47.2686 -0.0472,50.2299 -0.80947,50.7931 -0.59982,0.4432 -0.67506,0.7345 -0.2905,1.125 0.54449,0.5529 -0.14619,2.7621 -0.86588,2.7696 -0.1908,0 -0.34691,0.4199 -0.34691,0.9287 0,0.5088 -0.20815,0.9251 -0.46256,0.9251 -0.2544,0 -0.46255,0.4094 -0.46255,0.9097 0,0.9987 -5.84689,6.9537 -6.82741,6.9537 -0.33136,0 -0.72229,0.3123 -0.86872,0.6939 -0.14644,0.3816 -0.64799,0.6938 -1.11457,0.6938 -0.46658,0 -0.97696,0.2081 -1.13419,0.4625 -0.15723,0.2544 -0.68989,0.4626 -1.18369,0.4626 -0.49379,0 -0.8978,0.2081 -0.8978,0.4625 0,0.3057 -17.8083,0.4626 -52.49979,0.4626 -34.69149,0 -52.49979,-0.1569 -52.49979,-0.4626 z m 58.74426,-23.6468 c 0,-0.7901 0.1267,-0.8766 0.649,-0.4431 0.4116,0.3416 2.06127,0.4892 4.50989,0.4035 3.60403,-0.1261 3.87073,-0.2043 4.0087,-1.1758 0.14355,-1.0107 1.00858,-1.5066 1.00858,-0.5782 0,0.2544 0.62444,0.4626 1.38766,0.4626 0.82978,0 1.38766,-0.2416 1.38766,-0.601 0,-0.4144 0.50247,-0.5423 1.61893,-0.4119 1.18647,0.1385 1.61894,0.012 1.61894,-0.4753 0,-0.4751 0.3954,-0.6063 1.38766,-0.4607 0.83297,0.1223 1.38766,0 1.38766,-0.3114 0,-0.2833 0.38001,-0.515 0.84448,-0.515 0.46446,0 1.34909,-0.5425 1.96585,-1.2055 0.61675,-0.663 1.58971,-1.3864 2.16212,-1.6075 0.5724,-0.2211 1.04074,-0.7328 1.04074,-1.1372 0,-0.4043 0.61408,-1.2518 1.36462,-1.8834 1.38518,-1.1655 2.79836,-3.5112 2.79836,-4.645 0,-0.3425 0.20815,-0.6227 0.46255,-0.6227 0.25441,0 0.46256,-0.8203 0.46256,-1.8229 0,-1.0026 0.20814,-1.9516 0.46255,-2.1088 0.26475,-0.1636 0.46255,-2.5489 0.46255,-5.578 0,-3.2196 -0.18113,-5.292 -0.46255,-5.292 -0.25441,0 -0.46255,-0.8203 -0.46255,-1.8229 0,-1.0026 -0.20815,-1.9516 -0.46256,-2.1088 -0.2544,-0.1573 -0.46255,-0.6899 -0.46255,-1.1837 0,-0.4938 -0.20815,-0.8978 -0.46255,-0.8978 -0.25441,0 -0.46256,-0.4163 -0.46256,-0.9251 0,-0.5088 -0.20815,-0.9251 -0.46255,-0.9251 -0.25441,0 -0.46255,-0.3276 -0.46255,-0.7279 0,-0.929 -4.3762,-5.2853 -5.30946,-5.2853 -0.38705,0 -0.70374,-0.2082 -0.70374,-0.4626 0,-0.2544 -0.43116,-0.4625 -0.95814,-0.4625 -1.09833,0 -2.29698,-1.0328 -2.24321,-1.9328 0.0279,-0.4663 0.0918,-0.4742 0.26982,-0.033 0.40747,1.0099 1.22139,0.6368 3.49384,-1.6015 2.25444,-2.2205 2.66699,-3.1106 1.63482,-3.5271 -0.318,-0.1283 -0.10985,-0.2498 0.46256,-0.2698 0.7202,-0.025 1.04074,-0.3215 1.04074,-0.9617 0,-0.5088 0.1929,-0.9251 0.42868,-0.9251 0.23577,0 0.75614,-0.6564 1.15638,-1.4587 0.55664,-1.1158 0.72771,-2.9643 0.72771,-7.8634 0,-3.9614 -0.17646,-6.4047 -0.46256,-6.4047 -0.2544,0 -0.46255,-0.4228 -0.46255,-0.9396 0,-0.5168 -0.31222,-1.0595 -0.69383,-1.2059 -0.38161,-0.1464 -0.69383,-0.6603 -0.69383,-1.1419 0,-0.4815 -0.30569,-0.8756 -0.67931,-0.8756 -0.39381,0 -0.57437,-0.2735 -0.4296,-0.6507 0.32502,-0.847 -3.87384,-5.3625 -4.98645,-5.3625 -0.46362,0 -0.84294,-0.2324 -0.84294,-0.5165 0,-0.2887 -0.40788,-0.4098 -0.9251,-0.2745 -0.60126,0.1572 -0.92511,0.014 -0.92511,-0.4087 0,-0.3577 -0.4163,-0.6505 -0.92511,-0.6505 -0.50881,0 -0.9251,-0.2309 -0.9251,-0.5131 0,-0.3124 -0.62232,-0.4405 -1.59016,-0.3276 -1.23567,0.1443 -1.63847,9e-4 -1.80691,-0.6432 -0.16154,-0.6177 -0.67546,-0.8288 -2.01776,-0.8288 -0.99055,0 -2.05078,0.2497 -2.35607,0.555 -0.43171,0.4317 -0.55506,0.3345 -0.55506,-0.4374 v -0.9925 l -21.69765,-0.037 c -15.14503,-0.026 -21.7479,0.1143 -21.86403,0.4627 -0.0915,0.2745 -0.57891,0.5597 -1.0831,0.6337 -0.90505,0.1328 -0.91821,0.6599 -1.03484,41.4237 -0.10475,36.6094 -0.0392,41.259 0.57819,41.0221 0.38298,-0.147 0.69632,-0.066 0.69632,0.1808 0,0.2816 6.8851,0.448 18.52943,0.448 12.23516,0 18.43231,0.1572 18.24355,0.4626 -0.38717,0.6264 0.13527,1.3876 0.95241,1.3876 0.37097,0 0.66653,-0.4353 0.66653,-0.9817 z"
         id="path195834"
         transform="scale(0.26458333)" />
      <path
         style="opacity:1;fill:#563d7c;fill-opacity:1;stroke:none;stroke-width:1.16257;stroke-miterlimit:4;stroke-dasharray:none;stroke-opacity:1"
         d="m 908.91703,2475.3534 v -9.251 h 12.43945 c 10.63058,0 12.47816,0.1008 12.70569,0.6938 0.14644,0.3816 0.80262,0.6938 1.45817,0.6938 1.30996,0 3.46265,1.8561 3.46265,2.9856 0,0.4221 0.42615,0.7298 1.04074,0.7514 0.57241,0.02 0.78056,0.1415 0.46255,0.2698 -0.38961,0.1572 -0.57819,1.3522 -0.57819,3.6639 0,1.9787 -0.19576,3.4306 -0.46255,3.4306 -0.25441,0 -0.46255,0.4163 -0.46255,0.9251 0,0.5088 -0.20815,0.9251 -0.46256,0.9251 -0.2544,0 -0.46255,0.4163 -0.46255,0.9251 0,0.5088 -0.28674,0.9251 -0.63719,0.9251 -0.35046,0 -0.89632,0.3122 -1.21302,0.6938 -0.31671,0.3817 -0.96664,0.6939 -1.4443,0.6939 -0.47766,0 -0.86847,0.2081 -0.86847,0.4625 0,0.297 -4.47135,0.4626 -12.48894,0.4626 h -12.48893 z"
         id="path195873"
         transform="scale(0.26458333)" />
      <path
         style="opacity:1;fill:#563d7c;fill-opacity:1;stroke:none;stroke-width:1.16257;stroke-miterlimit:4;stroke-dasharray:none;stroke-opacity:1"
         d="m 908.91703,2509.8282 c 0,-9.4669 0.0889,-10.8214 0.69491,-10.5889 0.40627,0.1559 1.05347,-0.1761 1.55816,-0.7994 l 0.86324,-1.066 0.6346,1.0161 c 0.74928,1.1998 1.22133,1.2644 2.2746,0.3112 0.77147,-0.6982 2.30044,-0.5041 2.30044,0.2919 0,0.7244 1.02075,0.4444 1.84517,-0.5062 0.79562,-0.9174 0.79905,-0.9174 1.62925,0 1.06182,1.1733 1.70228,1.1617 2.45549,-0.044 l 0.60179,-0.9637 0.83575,0.9637 c 1.00919,1.1636 1.3296,1.1897 2.42539,0.1981 0.78711,-0.7124 0.90467,-0.7124 1.69178,0 1.10075,0.9961 1.41521,0.9666 2.45336,-0.2304 0.83464,-0.9623 0.86373,-0.965 0.86373,-0.079 0,0.7904 0.33406,0.9246 2.42048,0.9721 1.33126,0.03 2.49343,0.274 2.58259,0.5415 0.0892,0.2674 0.76921,0.4863 1.51122,0.4863 1.04074,0 1.34911,0.2114 1.34911,0.9251 0,0.5991 0.30837,0.9251 0.87496,0.9251 0.54753,0 0.98358,0.4328 1.1652,1.1564 0.15963,0.636 0.49442,1.1564 0.74397,1.1564 0.24956,0 0.45374,0.6487 0.45374,1.4416 0,1.2139 0.14614,1.4034 0.92511,1.1997 0.68619,-0.1795 0.92511,-0.014 0.92511,0.6398 0,0.485 -0.20815,0.8819 -0.46256,0.8819 -0.2544,0 -0.46255,0.4162 -0.46255,0.9251 0,0.5088 -0.20815,0.9251 -0.46255,0.9251 -0.25441,0 -0.46256,0.9366 -0.46256,2.0815 0,1.1448 -0.21468,2.0814 -0.47707,2.0814 -0.26239,0 -0.60563,0.3643 -0.76275,0.8095 -0.46644,1.3216 -2.09702,2.891 -3.00378,2.891 -0.46447,0 -0.84448,0.2081 -0.84448,0.4625 0,0.2544 -0.28674,0.4626 -0.63719,0.4626 -0.35046,0 -0.89632,0.3122 -1.21302,0.6938 -0.48752,0.5874 -2.62428,0.6938 -13.93324,0.6938 h -13.3574 z"
         id="path195912"
         transform="scale(0.26458333)" />
    </g>
  </g>
</svg>
