<?xml version="1.0" encoding="UTF-8" standalone="no"?>
<!-- Created with Inkscape (http://www.inkscape.org/) -->

<svg
   width="100"
   height="100"
   viewBox="0 0 26.458333 26.458334"
   version="1.1"
   id="svg2922"
   inkscape:version="1.1.2 (b8e25be833, 2022-02-05)"
   sodipodi:docname="css.svg"
   xmlns:inkscape="http://www.inkscape.org/namespaces/inkscape"
   xmlns:sodipodi="http://sodipodi.sourceforge.net/DTD/sodipodi-0.dtd"
   xmlns="http://www.w3.org/2000/svg"
   xmlns:svg="http://www.w3.org/2000/svg">
  <sodipodi:namedview
     id="namedview2924"
     pagecolor="#505050"
     bordercolor="#ffffff"
     borderopacity="1"
     inkscape:pageshadow="0"
     inkscape:pageopacity="0"
     inkscape:pagecheckerboard="1"
     inkscape:document-units="mm"
     showgrid="false"
     units="px"
     inkscape:zoom="4.0718557"
     inkscape:cx="65.203685"
     inkscape:cy="46.0478"
     inkscape:window-width="1920"
     inkscape:window-height="1001"
     inkscape:window-x="-9"
     inkscape:window-y="-9"
     inkscape:window-maximized="1"
     inkscape:current-layer="layer1" />
  <defs
     id="defs2919" />
  <g
     inkscape:label="Layer 1"
     inkscape:groupmode="layer"
     id="layer1">
    <path
       style="fill:#000080;fill-opacity:1;stroke:none;stroke-width:0.264703;stroke-miterlimit:4;stroke-dasharray:none;stroke-opacity:1"
       d="m 12.255805,25.422909 c -0.93482,-0.26159 -3.7303597,-1.01177 -4.9499197,-1.32832 -0.55029,-0.14283 -1.31334,-0.35439 -1.69568,-0.47013 l -0.69517,-0.21044 -0.12358,-1.28624 c -0.068,-0.70743 -0.23847,-2.58955 -0.37888,-4.18247 -0.1404,-1.59293 -0.30495,-3.29907 -0.36567,-3.79143 -0.0607,-0.49236 -0.22924,-2.34068 -0.3745,-4.10738 -0.14526,-1.7667003 -0.28989,-3.3669103 -0.32141,-3.5560203 -0.0628,-0.37704 -0.36201,-3.54652 -0.3627,-3.84253 -6.5e-4,-0.17429 0.56164,-0.18431 10.3320997,-0.18431 h 10.33253 l -0.0649,0.25868 c -0.0357,0.14228 -0.20735,1.88397 -0.38142,3.87042 -0.17408,1.98645 -0.34024,3.7539103 -0.36926,3.9276903 -0.029,0.17377 -0.19735,1.95101 -0.37408,3.94941 -0.31342,3.54419 -0.8077,8.88329 -0.82535,8.91535 -0.0312,0.0566 -0.85969,0.30868 -1.85189,0.56338 -0.63717,0.16357 -1.89308,0.49592 -2.79091,0.73857 -4.01682,1.08558 -3.67747,1.0329 -4.73929,0.73577 z m 2.46856,-4.41356 c 0.75654,-0.22629 1.89685,-0.56187 2.53402,-0.74573 0.63717,-0.18385 1.21372,-0.35113 1.28123,-0.37172 0.0715,-0.0218 0.14198,-0.33724 0.1688,-0.75505 0.0253,-0.39468 0.17076,-2.1394 0.32317,-3.87713 0.15241,-1.73775 0.27787,-3.21877 0.27879,-3.29118 0.001,-0.10205 -0.6435,-0.13246 -2.86821,-0.13527 l -2.8699,-0.004 0.73723,-0.30076 c 0.40547,-0.16541 1.14006,-0.47678 1.63242,-0.69194 0.49235,-0.21514 1.11087,-0.47723 1.37448,-0.58241 0.57914,-0.23108 1.8819,-0.8087803 2.10099,-0.9316703 0.10614,-0.0595 0.18189,-0.34414 0.23084,-0.86731 0.0401,-0.42828 0.0959,-1.02787 0.12412,-1.33241 l 0.0513,-0.5537 -6.60114,0.0271 c -6.5316997,0.0268 -6.6008697,0.0293 -6.5751797,0.23775 0.0143,0.11586 0.0823,0.72011 0.15119,1.3428 l 0.12521,1.13216 h 3.1136597 3.11366 l -0.42127,0.20048 c -0.2317,0.11025 -0.82411,0.36698 -1.31647,0.5705003 -2.4024197,0.99304 -3.5593997,1.47814 -3.8836097,1.62832 l -0.35548,0.16467 0.075,1.21774 c 0.0412,0.66975 0.0974,1.25394 0.12473,1.29821 0.0274,0.0443 2.03744,0.0805 4.4668597,0.0805 h 4.41711 l -6.5e-4,0.60558 c -6.4e-4,0.33306 -0.0307,1.06121 -0.0676,1.61809 l -0.0671,1.01253 -0.43265,0.10612 c -0.23796,0.0584 -0.87869,0.23735 -1.42383,0.39775 l -0.99117,0.29163 -1.3916,-0.34653 -1.39159,-0.34653 -0.0719,-0.88667 c -0.0396,-0.48767 -0.098,-0.95451 -0.12981,-1.03741 -0.0461,-0.12006 -0.3359397,-0.15075 -1.4240697,-0.15075 h -1.36623 l 0.0546,0.28962 c 0.03,0.15929 0.11217,1.08359 0.1825,2.05399 l 0.12787,1.76435 0.43144,0.1132 c 0.2373,0.0622 0.90538,0.25572 1.48463,0.42993 0.5792397,0.17421 1.5270997,0.45827 2.1063397,0.63125 0.57925,0.17297 1.10057,0.33108 1.1585,0.35134 0.20714,0.0725 0.32054,0.0483 1.67868,-0.35797 z"
       id="path188044" />
  </g>
</svg>
