<?xml version="1.0" encoding="UTF-8" standalone="no"?>
<!-- Created with Inkscape (http://www.inkscape.org/) -->

<svg
   width="100"
   height="100"
   viewBox="0 0 26.458333 26.458334"
   version="1.1"
   id="svg2807"
   inkscape:version="1.1.2 (b8e25be833, 2022-02-05)"
   sodipodi:docname="html.svg"
   xmlns:inkscape="http://www.inkscape.org/namespaces/inkscape"
   xmlns:sodipodi="http://sodipodi.sourceforge.net/DTD/sodipodi-0.dtd"
   xmlns="http://www.w3.org/2000/svg"
   xmlns:svg="http://www.w3.org/2000/svg">
  <sodipodi:namedview
     id="namedview2809"
     pagecolor="#505050"
     bordercolor="#ffffff"
     borderopacity="1"
     inkscape:pageshadow="0"
     inkscape:pageopacity="0"
     inkscape:pagecheckerboard="1"
     inkscape:document-units="mm"
     showgrid="false"
     units="px"
     inkscape:zoom="4.0718557"
     inkscape:cx="67.659568"
     inkscape:cy="69.378686"
     inkscape:window-width="1920"
     inkscape:window-height="1001"
     inkscape:window-x="-9"
     inkscape:window-y="-9"
     inkscape:window-maximized="1"
     inkscape:current-layer="layer1" />
  <defs
     id="defs2804" />
  <g
     inkscape:label="Layer 1"
     inkscape:groupmode="layer"
     id="layer1">
    <g
       id="g188189"
       transform="matrix(0.23671552,0,0,0.23671552,19.213208,-171.02967)">
      <path
         style="opacity:1;fill:#ff6600;fill-opacity:1;stroke:none;stroke-width:1.64413;stroke-miterlimit:4;stroke-dasharray:none;stroke-opacity:1"
         d="m -101.75903,3134.9462 c -0.24373,-0.3944 -1.29138,-0.5925 -2.32813,-0.4404 -1.24755,0.1831 -1.88498,-0.01 -1.88498,-0.5687 0,-0.521 -1.26056,-1.0126 -3.28542,-1.2812 -1.80699,-0.2397 -3.4381,-0.6829 -3.62471,-0.9848 -0.1866,-0.3019 -1.79901,-0.7426 -3.58314,-0.9793 -1.78412,-0.2367 -3.24386,-0.6528 -3.24386,-0.9248 0,-0.272 -1.61902,-0.6968 -3.59782,-0.944 -1.9788,-0.2473 -3.59782,-0.6888 -3.59782,-0.9812 0,-0.2925 -1.69261,-0.7427 -3.76135,-1.0006 -2.06875,-0.2579 -3.95212,-0.7757 -4.18527,-1.1508 -0.23315,-0.3751 -1.92395,-0.7132 -3.75733,-0.7513 -2.13978,-0.044 -3.33485,-0.3541 -3.33744,-0.8645 -0.003,-0.4593 -1.38554,-0.9784 -3.27478,-1.229 -1.79891,-0.2386 -3.27074,-0.7237 -3.27074,-1.078 0,-0.3543 -0.8831,-0.5145 -1.96245,-0.3561 -1.07935,0.1584 -1.96245,0.045 -1.96245,-0.2528 0,-0.2975 -0.73591,-0.5409 -1.63537,-0.5409 -0.89945,0 -1.63537,-0.2604 -1.63537,-0.5788 0,-0.3183 -1.61902,-0.781 -3.59782,-1.0283 -1.9788,-0.2472 -3.59782,-0.7227 -3.59782,-1.0566 0,-0.3339 -0.70227,-0.607 -1.5606,-0.607 -0.85833,0 -2.40375,-0.4398 -3.43428,-0.9772 -1.03053,-0.5375 -2.66582,-0.979 -3.63399,-0.9813 -0.96816,0 -1.94223,-0.2984 -2.16459,-0.6581 -0.57641,-0.9327 -3.42565,-0.8107 -3.81874,0.1635 -0.19711,0.4885 -0.35073,0.3568 -0.38158,-0.3271 -0.0306,-0.6793 -0.56788,-1.1447 -1.32134,-1.1447 -0.69833,0 -1.43458,-0.2668 -1.6361,-0.5929 -0.20153,-0.3261 -1.83792,-0.7952 -3.63643,-1.0426 -1.79851,-0.2474 -3.27001,-0.6876 -3.27001,-0.9783 0,-0.2907 -1.76621,-0.7335 -3.9249,-0.984 -2.15869,-0.2506 -3.92489,-0.6934 -3.92489,-0.9841 0,-0.2907 -1.54543,-0.739 -3.43428,-0.9962 -1.88886,-0.2572 -3.60365,-0.7341 -3.81065,-1.0599 -0.207,-0.3257 -1.89961,-0.7727 -3.76136,-0.9931 -1.86174,-0.2205 -3.38499,-0.6543 -3.38499,-0.964 0,-0.8851 -3.12367,-0.6573 -3.49166,0.2547 -0.19711,0.4884 -0.35074,0.3568 -0.38159,-0.3271 -0.0304,-0.6741 -0.56712,-1.1448 -1.30543,-1.1448 -0.68958,0 -1.35308,-0.2979 -1.47445,-0.662 -0.12136,-0.3641 -1.906,-0.732 -3.96586,-0.8176 -2.26186,-0.094 -3.87198,-0.4796 -4.06529,-0.9734 -0.17605,-0.4498 -0.90069,-0.8177 -1.61031,-0.8177 -0.70962,0 -1.48928,-0.3221 -1.73258,-0.7158 -0.2433,-0.3936 -1.14377,-0.5816 -2.00105,-0.4177 -0.85728,0.1638 -1.5587,0.044 -1.5587,-0.2655 0,-0.3099 -0.44155,-0.5635 -0.98122,-0.5635 -0.76317,0 -0.98122,-0.8722 -0.98122,-3.9249 0,-2.1586 -0.25864,-3.9248 -0.57476,-3.9248 -0.31611,0 -0.79084,-4.9307 -1.05495,-10.957 -0.26411,-6.0264 -0.73957,-11.1205 -1.05657,-11.3202 -0.31701,-0.1998 -0.74852,-5.3481 -0.95892,-11.4408 -0.21039,-6.0927 -0.61879,-11.2279 -0.90754,-11.4115 -0.28875,-0.1836 -0.74085,-5.1208 -1.00467,-10.9715 -0.26382,-5.8507 -0.74035,-10.7987 -1.05895,-10.9956 -0.31861,-0.1969 -0.57928,-2.6465 -0.57928,-5.4436 0,-2.797 -0.2104,-5.2959 -0.46754,-5.5531 -0.25715,-0.2571 -0.37885,-2.8083 -0.27044,-5.6693 0.12993,-3.4289 -0.0451,-5.2017 -0.51368,-5.2017 -0.46174,0 -0.71079,-2.1775 -0.71079,-6.2144 0,-3.418 -0.22077,-6.2138 -0.49061,-6.213 -0.26984,7e-4 -0.39233,-2.0734 -0.2722,-4.6094 0.14152,-2.9879 -0.0651,-4.9525 -0.58687,-5.5812 -0.5183,-0.6245 -0.75616,-2.8283 -0.66746,-6.184 0.0881,-3.3338 -0.11304,-5.2138 -0.55789,-5.2138 -0.4427,0 -0.69571,-2.26 -0.69571,-6.2144 0,-3.4179 -0.22078,-6.2137 -0.49062,-6.2129 -0.26983,6e-4 -0.39128,-2.1001 -0.26988,-4.6686 0.13357,-2.826 -0.0534,-4.8396 -0.47361,-5.0993 -0.41951,-0.2592 -0.84676,-4.8196 -1.07943,-11.5215 -0.21181,-6.1009 -0.66101,-11.1906 -0.99823,-11.3105 -0.33722,-0.1199 -0.61313,-2.681 -0.61313,-5.6913 0,-4.5225 -0.19885,-5.5891 -1.14476,-6.14 -0.63531,-0.3701 -0.78087,-0.6756 -0.32707,-0.6867 0.95507,-0.023 1.19756,-9.8321 0.24306,-9.8321 -0.31605,0 -0.78924,-5.1514 -1.05154,-11.4476 -0.2623,-6.2962 -0.73964,-11.4476 -1.06075,-11.4476 -0.32111,0 -0.58383,-2.4531 -0.58383,-5.4513 0,-2.9981 -0.19254,-5.6437 -0.42786,-5.8791 -0.23532,-0.2353 -0.36412,-2.6105 -0.28622,-5.2783 0.0779,-2.6678 -0.13325,-5.0204 -0.4692,-5.228 -0.33596,-0.2077 -0.82501,-5.3885 -1.08678,-11.5129 -0.26178,-6.1244 -0.7412,-11.2993 -1.0654,-11.4996 -0.32419,-0.2004 -0.58944,-2.6873 -0.58944,-5.5264 0,-4.2262 -0.20755,-5.283 -1.14476,-5.8288 -0.63531,-0.3701 -0.78087,-0.6757 -0.32707,-0.6867 1.01352,-0.025 1.17664,-9.8321 0.16354,-9.8321 -0.3848,0 -0.65415,-2.2895 -0.65415,-5.5603 0,-3.0581 -0.22087,-5.5603 -0.49081,-5.5603 -0.26995,0 -0.38679,-2.5395 -0.25965,-5.6435 0.16504,-4.0292 -0.003,-5.7885 -0.58888,-6.1503 -0.56816,-0.3512 -0.77703,-2.1339 -0.68001,-5.8041 0.0897,-3.3942 -0.10992,-5.2973 -0.55569,-5.2973 -0.43657,0 -0.69571,-2.0567 -0.69571,-5.5216 0,-3.0369 -0.23065,-5.6642 -0.51256,-5.8385 -0.28191,-0.1742 -0.39817,-1.5162 -0.25837,-2.9822 l 0.2542,-2.6655 H -98.077633 67.329365 l -0.401994,7.6862 c -0.221096,4.2274 -0.651853,7.7844 -0.957236,7.9043 -0.305376,0.1199 -0.555235,2.6783 -0.555235,5.6852 0,3.0069 -0.255026,5.6248 -0.566728,5.8174 -0.311702,0.1927 -0.532478,2.8592 -0.490612,5.9256 0.04186,3.0665 -0.144659,5.5755 -0.414495,5.5757 -0.269837,2e-4 -0.490612,2.4534 -0.490612,5.4516 0,2.9982 -0.202243,5.6535 -0.449426,5.9007 -0.550657,0.5506 -0.60344,1.0968 -1.210451,12.5245 -0.267553,5.0369 -0.70548,9.3053 -0.973171,9.4852 -0.267691,0.1798 -0.699115,5.4784 -0.958727,11.7746 -0.259606,6.2962 -0.75982,11.8019 -1.111589,12.2349 -0.351762,0.433 -0.541289,2.8622 -0.421161,5.3982 0.120122,2.536 -0.0026,4.6103 -0.272204,4.6095 -0.269837,-7e-4 -0.490612,2.5006 -0.490612,5.5588 0,3.0581 -0.263033,5.5602 -0.584515,5.5602 -0.321481,0 -0.798755,4.8571 -1.060617,10.7935 -0.261856,5.9364 -0.74942,10.7934 -1.083474,10.7934 -0.334061,0 -0.619963,2.7229 -0.635342,6.0509 -0.0399,8.6324 -0.586327,16.409 -1.206578,17.1714 -0.292679,0.3598 -0.746351,5.4377 -1.008155,11.2841 -0.26181,5.8465 -0.701084,10.6299 -0.976167,10.6299 -0.275089,0 -0.714769,5.1515 -0.977076,11.4476 -0.262301,6.2962 -0.735492,11.4476 -1.051538,11.4476 -0.316045,0 -0.574624,2.4531 -0.574624,5.4513 0,2.9982 -0.202243,5.6535 -0.449426,5.9007 -0.550657,0.5506 -0.60344,1.0967 -1.210451,12.5245 -0.267553,5.0369 -0.708267,9.3053 -0.979366,9.4851 -0.271099,0.1799 -0.597682,3.0428 -0.725739,6.3619 -0.190808,4.9454 -0.05573,6.083 0.748386,6.3021 0.738364,0.2011 0.697892,0.286 -0.163537,0.3431 -0.981747,0.065 -1.144761,0.7746 -1.144761,4.982 0,2.8347 -0.276195,4.9062 -0.654149,4.9062 -1.002549,0 -0.845239,10.2802 0.163537,10.6873 0.48848,0.1971 0.356799,0.3507 -0.327074,0.3815 -0.989806,0.045 -1.144761,0.7548 -1.144761,5.2463 0,2.857 -0.262942,5.3571 -0.584312,5.5557 -0.32137,0.1986 -0.798651,5.2202 -1.060618,11.1591 -0.266696,6.0461 -0.749667,10.798 -1.097485,10.798 -0.361685,0 -0.533472,2.4601 -0.411218,5.8889 0.115477,3.2388 -0.01079,5.8882 -0.280649,5.8873 -0.269837,-6e-4 -0.490612,2.5006 -0.490612,5.5588 0,3.2707 -0.269352,5.5603 -0.654149,5.5603 -0.3738,0 -0.654149,1.9624 -0.654149,4.579 0,3.6342 -0.202472,4.579 -0.981223,4.579 -0.539673,0 -0.981224,0.2536 -0.981224,0.5635 0,0.3099 -0.701411,0.4293 -1.558693,0.2655 -0.857282,-0.1639 -1.757757,0.024 -2.001055,0.4177 -0.243298,0.3937 -1.308089,0.7158 -2.366201,0.7158 -1.058112,0 -1.923839,0.2732 -1.923839,0.6071 0,0.3339 -1.619019,0.8093 -3.597819,1.0566 -1.978801,0.2472 -3.59782,0.7099 -3.59782,1.0283 0,0.3183 -0.588734,0.5787 -1.308298,0.5787 -0.719564,0 -1.308298,0.2434 -1.308298,0.5409 0,0.2975 -0.883101,0.4112 -1.962447,0.2528 -1.079346,-0.1584 -1.962447,0 -1.962447,0.3493 0,0.3505 -1.523245,0.8177 -3.384992,1.0382 -1.8617409,0.2204 -3.5543514,0.6674 -3.7613569,0.9931 -0.2069989,0.3258 -1.9217916,0.8027 -3.8106468,1.0599 -1.88885529,0.2572 -3.4342823,0.6965 -3.4342823,0.9761 0,0.2797 -1.4856705,0.7056 -3.3014835,0.9465 -1.8158195,0.2409 -3.440719,0.7939 -3.6108828,1.229 -0.1755082,0.4488 -1.7386496,0.8434 -3.6121127,0.9119 -1.816493,0.066 -3.650407,0.3973 -4.075368,0.7352 -0.424961,0.3379 -2.170898,0.8167 -3.879862,1.064 -1.708965,0.2473 -3.107208,0.726 -3.107208,1.0637 0,0.3378 -0.956693,0.6159 -2.125984,0.6181 -1.169292,0 -2.969143,0.4438 -3.99967,0.9813 -1.030527,0.5374 -2.575954,0.9772 -3.434282,0.9772 -0.858329,0 -1.560597,0.2731 -1.560597,0.607 0,0.3339 -1.619019,0.8094 -3.59782,1.0566 -1.9788,0.2473 -3.597819,0.6811 -3.597819,0.9641 0,0.283 -1.766202,0.7195 -3.924894,0.9701 -2.158692,0.2505 -3.924894,0.6998 -3.924894,0.9984 0,0.2985 -1.619019,0.7451 -3.59782,0.9923 -1.9788,0.2473 -3.597819,0.6824 -3.597819,0.9669 0,0.2846 -1.471508,0.7198 -3.270012,0.9672 -1.798511,0.2473 -3.434904,0.7165 -3.636428,1.0426 -0.201524,0.3261 -1.011367,0.5974 -1.799642,0.6029 -1.174243,0.01 -1.255921,0.1281 -0.452004,0.6634 0.6891,0.4589 0.153535,0.5284 -1.79891,0.2334 -1.780528,-0.2689 -2.780133,-0.1716 -2.780133,0.2708 0,0.3798 -1.619019,0.8929 -3.59782,1.1402 -1.9788,0.2472 -3.597819,0.681 -3.597819,0.964 0,0.283 -1.766202,0.7196 -3.924894,0.9701 -2.158692,0.2506 -3.924894,0.6876 -3.924894,0.9712 0,0.2836 -1.367917,0.7208 -3.039811,0.9715 -1.6719,0.2507 -3.585286,0.7257 -4.251968,1.0555 -0.666689,0.3298 -1.796895,0.894 -2.511579,1.2538 -1.743877,0.8779 -7.016081,0.8341 -7.570451,-0.063 z m 4.944978,-26.0388 c 0,-0.3245 1.766202,-0.795 3.924894,-1.0455 2.158692,-0.2505 3.924894,-0.6934 3.924894,-0.9841 0,-0.2907 1.545427,-0.7591 3.434282,-1.041 1.888855,-0.2819 3.581466,-0.5699 3.761357,-0.64 0.179891,-0.07 0.9894,-0.343 1.79891,-0.6064 0.809509,-0.2634 1.471835,-0.775 1.471835,-1.1369 0,-0.3618 0.463988,-0.2728 1.031083,0.1978 0.810673,0.6728 1.13765,0.6833 1.529635,0.049 0.274213,-0.4437 1.355652,-0.9064 2.403207,-1.0281 1.047554,-0.1218 1.978231,-0.2918 2.068177,-0.3778 0.08995,-0.086 0.384312,-0.2178 0.654149,-0.293 0.269836,-0.075 1.32055,-0.4803 2.334919,-0.9005 1.014369,-0.4201 2.571401,-0.5814 3.460075,-0.3584 1.128205,0.2832 1.558641,0.1529 1.426444,-0.4316 -0.243768,-1.0779 2.201002,-1.7868 6.445703,-1.869 2.342115,-0.045 3.478699,-0.3634 3.74083,-1.0465 0.20709,-0.5396 1.121682,-0.9812 2.032434,-0.9812 0.910746,0 1.6559,-0.2654 1.6559,-0.5899 0,-0.3245 1.766202,-0.7949 3.924894,-1.0455 2.158692,-0.2505 3.924894,-0.6833 3.924894,-0.9618 0,-0.2785 1.242235,-0.705 2.760528,-0.9477 1.518293,-0.2428 3.01254,-0.7956 3.320546,-1.2284 0.433334,-0.6089 0.635074,-0.602 0.891801,0.031 0.393968,0.971 2.185211,1.105 2.185211,0.1636 0,-0.3598 1.137768,-0.6542 2.528377,-0.6542 1.537872,0 3.179963,-0.5125 4.191611,-1.3083 0.914775,-0.7195 2.261752,-1.3083 2.993281,-1.3083 0.731528,0 1.51198,-0.2943 1.734338,-0.6541 0.222359,-0.3598 1.252643,-0.6542 2.289522,-0.6542 1.036878,0 2.061891,-0.2858 2.277799,-0.6351 0.215915,-0.3494 1.852302,-0.8289 3.636428,-1.0655 1.784119,-0.2367 3.243859,-0.6592 3.243859,-0.9388 0,-0.2797 1.545427,-0.719 3.4342822,-0.9762 1.8888553,-0.2572 3.6090513,-0.7429 3.8226506,-1.0793 0.2136058,-0.3364 2.05339984,-0.7835 4.0884312,-0.9936 2.0350379,-0.21 3.700063,-0.635 3.700063,-0.9445 0,-0.3094 1.1867048,-0.5626 2.6371232,-0.5626 1.66564,0 2.7674948,-0.3397 2.9910048,-0.9222 0.194635,-0.5072 1.068493,-1.1015 1.94192,-1.3207 1.543085,-0.3873 2.287572,-2.3361 0.892442,-2.3361 -0.390723,0 -0.605748,-0.9318 -0.490612,-2.126 0.112743,-1.1693 0.53268,-2.0658 0.933196,-1.9923 0.501268,0.092 0.629573,-1.2449 0.411702,-4.2899 -0.250958,-3.5074 -0.09695,-4.6431 0.743624,-5.4837 1.18887,-1.1889 1.398799,-2.4619 0.405984,-2.4619 -0.359782,0 -0.654149,-0.8831 -0.654149,-1.9624 0,-1.0794 0.294367,-1.9625 0.654149,-1.9625 0.359782,0 0.654149,-0.4415 0.654149,-0.9812 0,-0.5397 -0.294367,-0.9812 -0.654149,-0.9812 -0.844807,0 -0.855359,-1.7851 -0.01223,-2.0715 0.353045,-0.1199 0.777699,-1.5427 0.943676,-3.1617 0.16597,-1.619 0.352619,-3.0909 0.414776,-3.2708 0.350415,-1.0142 0.239968,-2.3884 -0.247432,-3.0785 -0.306488,-0.434 -0.326943,-1.1617 -0.04546,-1.6172 0.281493,-0.4554 0.431509,-1.9402 0.333367,-3.2994 -0.103892,-1.4389 0.115719,-2.4713 0.52574,-2.4713 0.387295,0 0.704172,-0.4415 0.704172,-0.9812 0,-0.5397 -0.294367,-0.9812 -0.654149,-0.9812 -1.227478,0 -0.661299,-3.4382 0.770698,-4.6801 1.093554,-0.9485 1.245657,-1.415 0.654149,-2.0065 -0.937336,-0.9373 -1.029251,-4.4339 -0.116556,-4.4339 0.359782,0 0.654149,-0.5888 0.654149,-1.3083 0,-0.7196 -0.294367,-1.3083 -0.654149,-1.3083 -0.359782,0 -0.654149,-0.736 -0.654149,-1.6354 0,-0.9858 0.373421,-1.6354 0.940143,-1.6354 0.751185,0 0.884756,-0.8794 0.664576,-4.3755 -0.220154,-3.4957 -0.04749,-4.633 0.858767,-5.6558 0.833196,-0.9405 0.917261,-1.3563 0.316647,-1.5664 -1.063724,-0.372 -1.063724,-4.5322 0,-5.0286 0.654149,-0.3052 0.654149,-0.4579 0,-0.7631 -0.449727,-0.2099 -0.817686,-1.3629 -0.817686,-2.5621 0,-1.1993 0.367959,-2.3031 0.817686,-2.4528 0.559311,-0.1863 0.840327,-2.0025 0.889342,-5.7477 0.04527,-3.4597 0.346293,-5.5669 0.817686,-5.7241 0.999775,-0.3332 0.951185,-1.9098 -0.07165,-2.3248 -0.61596,-0.25 -0.576966,-0.4988 0.158068,-1.0085 0.777103,-0.539 0.810399,-0.8421 0.163538,-1.489 -1.020087,-1.02 -1.064883,-4.2822 -0.06339,-4.616 0.500777,-0.1669 0.78104,-2.9073 0.846063,-8.2728 0.07538,-6.2204 0.310099,-8.1547 1.04461,-8.6086 0.754502,-0.4664 0.782022,-0.7509 0.135161,-1.3978 -1.089021,-1.089 -1.034066,-4.7853 0.08495,-5.714 0.643114,-0.5337 0.861567,-2.205 0.771464,-5.9019 -0.0985,-4.0412 0.06123,-5.0855 0.738208,-4.8258 1.101907,0.4229 1.146082,-1.5302 0.04625,-2.0434 -0.654149,-0.3053 -0.654149,-0.4579 0,-0.7632 0.971921,-0.4536 1.102267,-2.235 0.163511,-2.235 -0.899389,0 -0.830985,-5.7194 0.07201,-6.0204 0.464432,-0.1548 0.719237,-2.4289 0.706952,-6.3097 -0.01472,-4.6499 0.197736,-6.1509 0.909214,-6.4239 1.074205,-0.4122 1.329951,-6.1037 0.274272,-6.1037 -0.359782,0 -0.654149,-0.8831 -0.654149,-1.9624 0,-1.0794 0.294367,-1.9625 0.654149,-1.9625 0.373159,0 0.654149,-1.9468 0.654149,-4.5323 0,-3.4354 0.275632,-4.8079 1.138919,-5.6712 0.818923,-0.8189 0.910818,-1.215 0.327075,-1.4096 -0.961684,-0.3205 -1.108717,-4.7406 -0.157696,-4.7406 0.958911,0 0.800319,-1.9532 -0.163537,-2.0141 -0.654149,-0.041 -0.654149,-0.1176 0,-0.3816 0.970894,-0.3917 1.105086,-2.1833 0.163537,-2.1833 -0.359782,0 -0.654149,-0.2944 -0.654149,-0.6542 0,-0.3598 0.375782,-0.6541 0.835074,-0.6541 0.626203,0 0.84081,-1.8304 0.857994,-7.3181 0.01583,-5.0529 0.263544,-7.3983 0.800299,-7.5773 0.940569,-0.3135 1.045514,-2.1125 0.123229,-2.1125 -1.000554,0 -0.777796,-3.2405 0.296617,-4.315 0.733347,-0.7333 0.891272,-2.2933 0.690612,-6.8218 -0.212788,-4.802 -0.08813,-5.8711 0.684606,-5.8711 1.157739,0 1.258125,-1.7262 0.127075,-2.1852 -0.61736,-0.2505 -0.577293,-0.5164 0.163537,-1.0855 0.74083,-0.5691 0.780897,-0.8351 0.163537,-1.0856 -1.391852,-0.5647 -0.987019,-4.3813 0.567736,-5.3523 1.021022,-0.6376 1.193076,-1.0575 0.654149,-1.5964 -0.978391,-0.9784 -0.93001,-3.9342 0.08094,-4.9451 0.646861,-0.6469 0.614677,-0.9343 -0.158069,-1.4119 -0.762568,-0.4713 -0.799736,-0.7702 -0.173631,-1.3963 0.607057,-0.6071 0.615764,-1.0146 0.03657,-1.7125 -0.58666,-0.7069 -0.545796,-1.0484 0.1791,-1.4969 1.095922,-0.678 1.335648,-4.6568 0.32294,-5.3601 -0.448125,-0.3111 -0.385523,-0.4841 0.177588,-0.4906 0.625099,-0.01 0.748451,-0.5618 0.438633,-1.9724 -0.336945,-1.5341 -0.205507,-1.9625 0.602171,-1.9625 1.15331,0 1.387849,-1.0119 0.379053,-1.6353 -0.926681,-0.5728 -0.843107,-9.3132 0.09203,-9.6249 0.934118,-0.3114 1.374112,-18.1765 0.447693,-18.1765 -0.339301,0 -0.460999,-0.2522 -0.270452,-0.5606 0.190554,-0.3083 -1.411091,-0.5411 -3.559211,-0.5174 -2.148115,0.024 -3.905669,0.312 -3.905669,0.6406 0,0.3508 -0.337685,0.3432 -0.817686,-0.019 -1.286914,-0.9696 -10.300799,-0.9872 -10.312862,-0.02 -0.0065,0.5177 -0.238889,0.4544 -0.654149,-0.1782 -0.572564,-0.8722 -0.715704,-0.8722 -1.288268,0 -0.354274,0.5396 -0.648641,0.65 -0.654149,0.2453 -0.0052,-0.4048 -0.745933,-0.7359 -1.645387,-0.7359 -0.899455,0 -1.63988,0.3311 -1.645388,0.7359 -0.0052,0.4047 -0.299875,0.2943 -0.654149,-0.2453 -0.572564,-0.8722 -0.715704,-0.8722 -1.288268,0 -0.41526,0.6326 -0.647693,0.6959 -0.654149,0.1782 -0.01204,-0.9672 -9.0259479,-0.9496 -10.31286175,0.02 C 0.30296257,2785.6254 0,2785.6201 0,2785.2232 c 0,-0.8495 -6.7413783,-0.7413 -7.3491612,0.118 -0.3068483,0.4338 -0.4842142,0.3712 -0.4906118,-0.173 -0.00792,-0.6751 -2.56274,-0.8224 -12.275309,-0.7079 -6.745911,0.079 -12.633252,0.4255 -13.08298,0.769 -0.521723,0.3984 -0.817686,0.3941 -0.817686,-0.012 0,-0.3714 -3.404545,-0.6917 -8.176863,-0.7692 -6.347776,-0.1031 -8.179106,0.058 -8.186877,0.7199 -0.0065,0.5443 -0.18379,0.6069 -0.490612,0.1732 -0.589617,-0.8336 -7.349161,-0.9803 -7.349161,-0.1595 0,0.324 -0.367959,0.3513 -0.817686,0.061 -1.332705,-0.8612 -8.338941,-0.8418 -8.350415,0.023 -0.0059,0.4226 -0.293608,0.3231 -0.654149,-0.2261 -0.572564,-0.8722 -0.715705,-0.8722 -1.288268,0 -0.354274,0.5396 -0.648641,0.65 -0.654149,0.2453 -0.0052,-0.4048 -0.745933,-0.7359 -1.645388,-0.7359 -0.899454,0 -1.639879,0.3311 -1.645387,0.7359 -0.0052,0.4047 -0.299875,0.2943 -0.654149,-0.2453 -0.572564,-0.8722 -0.715705,-0.8722 -1.288268,0 -0.430731,0.6561 -0.647451,0.7103 -0.654149,0.1635 -0.01328,-1.0826 -7.304764,-1.1111 -8.383122,-0.033 -0.449021,0.449 -0.784979,0.5015 -0.784979,0.1227 0,-0.3668 -1.605759,-0.6624 -3.59782,-0.6624 -1.9788,0 -3.597819,0.2752 -3.597819,0.6116 0,0.3364 -0.39941,0.2801 -0.887576,-0.125 -0.99182,-0.8231 -4.787952,-0.2955 -5.437692,0.7558 -0.225884,0.3655 -0.410701,9.6 -0.410701,20.5212 v 19.8567 h -51.954332 c -44.15489,0 -52.09462,0.1402 -52.88883,0.9345 -1.01509,1.015 -1.34781,8.2235 -0.37957,8.2235 0.49439,0 1.69168,16.8571 1.48391,20.8924 -0.0452,0.8773 0.18825,1.7621 0.51872,1.9664 0.33046,0.2042 0.79385,4.9322 1.02976,10.5067 0.23591,5.5745 0.68529,10.7242 0.99863,11.4438 0.31333,0.7195 0.76532,5.9445 1.00442,11.6111 0.23909,5.6666 0.69809,10.3028 1.01999,10.3028 0.32191,0 0.58528,2.5022 0.58528,5.5603 0,3.0582 0.23473,5.5603 0.52161,5.5603 0.28689,0 0.39831,1.9365 0.24761,4.3033 -0.16976,2.666 0.005,4.5825 0.45961,5.0369 0.44139,0.4414 0.73362,3.2655 0.73362,7.0898 0,3.4959 0.25397,6.4543 0.56439,6.5742 0.31041,0.1199 0.75791,4.2926 0.99445,9.2726 0.30281,6.3753 0.69878,9.3232 1.33821,9.9626 0.75428,0.7543 8.76017,0.9381 47.24904,1.0848 l 46.340886,0.1767 0.127841,31.1956 0.127847,31.1956 -3.380824,-0.2338 c -1.85945,-0.1285 -3.48454,-0.5449 -3.6113,-0.9252 -0.12676,-0.3803 -1.68018,-0.8837 -3.45205,-1.1188 -1.77186,-0.235 -3.22157,-0.6499 -3.22157,-0.9218 0,-0.272 -1.61902,-0.6968 -3.59782,-0.944 -1.9788,-0.2473 -3.59782,-0.7228 -3.59782,-1.0567 0,-0.3338 -0.86572,-0.607 -1.92384,-0.607 -1.05811,0 -2.1229,-0.3221 -2.3662,-0.7158 -0.24329,-0.3936 -1.14377,-0.5816 -2.00105,-0.4178 -0.85728,0.1639 -1.5587,0.045 -1.5587,-0.2654 0,-0.3099 -0.86572,-0.5635 -1.92383,-0.5635 -1.05812,0 -2.12163,-0.32 -2.36335,-0.7111 -0.24173,-0.3911 -0.99502,-0.5659 -1.67398,-0.3883 -0.67896,0.1775 -1.23447,0.056 -1.23447,-0.2701 0,-0.3261 -0.88311,-0.5929 -1.96245,-0.5929 -1.07935,0 -1.96245,-0.2944 -1.96245,-0.6542 0,-0.3598 -0.71184,-0.6541 -1.58187,-0.6541 -3.22054,0 -3.65132,-0.5485 -3.65132,-4.649 0,-3.2156 -0.18986,-3.8635 -1.14476,-3.9066 -0.68387,-0.031 -0.81555,-0.1845 -0.32708,-0.3816 0.95582,-0.3857 1.18774,-11.9956 0.23963,-11.9956 -0.31794,0 -0.69454,-2.8997 -0.83689,-6.4439 -0.19522,-4.8603 -0.52394,-6.709 -1.33766,-7.5227 -0.95689,-0.9569 -3.41857,-1.0788 -21.77798,-1.0788 -17.06706,0 -20.86312,0.164 -21.63364,0.9345 -1.00459,1.0046 -1.31002,6.2611 -0.3638,6.2611 0.31388,0 0.78534,5.593 1.04769,12.4289 0.26236,6.8358 0.69761,12.4288 0.96725,12.4288 0.40848,0 1.59545,16.0684 1.46172,19.788 -0.0226,0.6296 0.30851,1.1445 0.73588,1.1441 0.54645,-4e-4 0.74305,1.601 0.66254,5.3968 -0.063,2.9685 0.0426,6.722 0.23477,8.341 0.30176,2.5432 0.65469,3.0994 2.59444,4.0884 1.23484,0.6296 3.11617,1.1448 4.18073,1.1448 1.06456,0 1.93556,0.3278 1.93556,0.7284 0,0.4395 0.78956,0.6125 1.99125,0.4361 1.09518,-0.1607 2.14284,-0.047 2.32813,0.2528 0.18528,0.2998 1.03089,0.5451 1.87913,0.5451 0.84824,0 1.64037,0.2875 1.76031,0.6389 0.11992,0.3514 1.80046,0.7619 3.73451,0.9121 1.93406,0.1502 3.74247,0.6388 4.01871,1.0858 0.27623,0.4469 2.00545,0.9571 3.84271,1.1336 1.83725,0.1765 3.34047,0.5779 3.34047,0.8919 0,0.314 0.80951,0.5803 1.79891,0.5917 0.9894,0.012 2.37031,0.453 3.06869,0.9812 0.69839,0.5283 2.36647,0.9605 3.70685,0.9605 1.34038,0 2.54151,0.3133 2.66917,0.6963 0.12766,0.383 1.55044,0.8643 3.16172,1.0696 1.61128,0.2052 3.29381,0.6607 3.73896,1.0122 0.44515,0.3514 1.24523,0.4717 1.77796,0.2673 0.53273,-0.2044 1.14259,-0.09 1.35523,0.2539 0.21265,0.344 1.10518,0.6256 1.9834,0.6256 0.87822,0 1.59677,0.2943 1.59677,0.6541 0,0.9614 2.61306,0.7993 2.63649,-0.1635 0.011,-0.4538 0.31661,-0.3083 0.68665,0.327 0.36672,0.6297 1.09368,1.1448 1.61548,1.1448 0.5218,0 0.94872,0.2563 0.94872,0.5696 0,0.3133 2.06057,0.7727 4.57904,1.0209 2.51848,0.2481 4.57904,0.7144 4.57904,1.0361 0,0.3217 1.03354,0.7788 2.29675,1.0157 1.26321,0.237 2.44377,0.6688 2.62348,0.9596 0.1797,0.2907 2.23702,0.7332 4.57182,0.9832 2.33479,0.2501 4.24508,0.7147 4.24508,1.0326 0,0.3179 0.42686,0.5779 0.948572,0.5779 0.809778,0 0.942047,3.0539 0.903982,20.8703 -0.02453,11.4786 0.154726,21.1927 0.398337,21.5869 0.534329,0.8646 1.674007,0.9509 1.674007,0.1268 z"
         id="path188181"
         transform="scale(0.26458333)" />
      <path
         style="opacity:1;fill:#d45500;fill-opacity:1;stroke:none;stroke-width:1.64413;stroke-miterlimit:4;stroke-dasharray:none;stroke-opacity:1"
         d="m -97.609208,3091.7331 c -0.244913,-20.9607 -0.05295,-25.4097 1.096376,-25.4097 0.493929,0 1.000896,-0.3085 1.126592,-0.6856 0.125697,-0.3771 1.916429,-0.8598 3.979406,-1.0727 2.062978,-0.2129 3.750868,-0.606 3.750868,-0.8735 0,-0.6684 2.626795,-1.4489 4.415506,-1.312 0.809509,0.062 1.471835,-0.1689 1.471835,-0.513 0,-0.3441 1.594476,-0.8248 3.54328,-1.0683 2.12716,-0.2658 3.685902,-0.8144 3.900132,-1.3726 0.199325,-0.5195 0.800928,-0.7596 1.362837,-0.544 0.553293,0.2124 1.521128,0.1636 2.150747,-0.1082 0.629618,-0.2719 1.807086,-0.4295 2.616596,-0.3503 0.809509,0.079 1.471835,-0.1713 1.471835,-0.5569 0,-0.3855 0.718545,-0.7009 1.596766,-0.7009 0.878222,0 1.754297,-0.2549 1.946835,-0.5665 0.192537,-0.3115 1.093011,-0.4244 2.001053,-0.2508 0.967909,0.185 1.650985,0.013 1.650985,-0.4148 0,-0.4017 0.571361,-0.7304 1.269692,-0.7304 0.698331,0 1.427222,-0.2549 1.61976,-0.5664 0.192537,-0.3115 1.058506,-0.431 1.924375,-0.2655 0.865869,0.1655 1.773369,-0.021 2.016666,-0.4148 0.243297,-0.3936 1.308086,-0.7157 2.366199,-0.7157 1.058113,0 1.923841,-0.2852 1.923841,-0.6337 0,-0.3484 0.411775,-0.4756 0.915056,-0.2824 0.503281,0.1931 1.109387,0.037 1.346904,-0.3476 0.237516,-0.3843 1.297576,-0.6988 2.355689,-0.6988 1.058113,0 1.923841,-0.2944 1.923841,-0.6541 0,-0.3598 0.72129,-0.6542 1.602868,-0.6542 0.881577,0 1.90291,-0.5151 2.269629,-1.1447 0.370037,-0.6354 0.675615,-0.7809 0.686654,-0.3271 0.02223,0.9137 2.636488,1.1506 2.636488,0.2389 0,-0.3183 1.619019,-0.7811 3.597819,-1.0283 1.978801,-0.2472 3.59782,-0.6848 3.59782,-0.9723 0,-0.2876 1.471835,-0.7181 3.270745,-0.9567 1.79891,-0.2386 3.270745,-0.6807 3.270745,-0.9823 0,-0.3016 1.447292,-0.6874 3.216202,-0.8574 1.768917,-0.17 3.703327,-0.7962 4.298694,-1.3915 0.595374,-0.5954 1.503012,-1.0825 2.01699,-1.0825 1.176252,0 1.281086,-3.6904 0.116812,-4.112 -0.634734,-0.2299 -0.605049,-0.6446 0.1327,-1.8534 0.604702,-0.9909 1.025261,-3.8177 1.1562349,-7.7717 0.1132201,-3.418 0.4950534,-6.3126 0.8485229,-6.4325 0.8466585,-0.2873 0.8356753,-6.6505 -0.011474,-6.6505 -1.0777758,0 -0.7380305,-2.4445 0.4004635,-2.8813 0.8671595,-0.3328 1.0086977,-1.2173 0.7963021,-4.9762 -0.1931048,-3.4174 -0.046497,-4.5714 0.58076,-4.5714 0.6080773,0 0.8390704,-1.3506 0.8390704,-4.9061 0,-2.8346 -0.2761948,-4.9061 -0.654149,-4.9061 -0.944807,0 -0.8061013,-1.8028 0.1635372,-2.1256 0.5748727,-0.1914 0.8486537,-2.2899 0.9219773,-7.0669 0.065022,-4.236 0.3729303,-6.8842 0.8176862,-7.0324 1.0079193,-0.336 0.9149648,-6.4795 -0.104291,-6.8931 -0.6148215,-0.2494 -0.5742447,-0.5003 0.1635373,-1.0112 0.7434076,-0.5147 1.0100715,-2.2276 1.1002394,-7.067 0.071642,-3.8451 0.3971273,-6.4804 0.8176862,-6.6206 0.8844291,-0.2948 0.9271581,-7.3195 0.044521,-7.3195 -0.359782,0 -0.654149,-0.4323 -0.654149,-0.9607 0,-0.5812 0.3839985,-0.8133 0.9722551,-0.5876 0.823953,0.3162 0.946848,-0.547 0.8057088,-5.6595 -0.1213446,-4.3952 0.058612,-6.1189 0.6631174,-6.3509 0.96292039,-0.3695 1.18876533,-8.0282 0.236743,-8.0282 -0.3335571,0 -0.2855425,-1.0015 0.1097532,-2.2895 0.38647119,-1.2593 0.97445956,-2.2895 1.30663643,-2.2895 0.76940351,0 0.43659212,-8.5577 -0.37524604,-9.6487 -0.84268779,-1.1326 -2.41066989,-1.0262 -2.41066989,0.1635 0,0.5397 -0.2943671,0.9812 -0.654149,0.9812 -0.359782,0 -0.654149,-0.4415 -0.654149,-0.9812 0,-0.5397 -0.4730413,-0.9812 -1.0512109,-0.9812 -0.6656555,0 -0.913107,0.3599 -0.6746762,0.9812 0.2957146,0.7706 -0.180676,0.9812 -2.2195341,0.9812 -1.4278372,0 -2.5960692,-0.2943 -2.5960692,-0.6541 0,-0.9388 -1.781437,-0.8084 -2.235011,0.1635 -0.305265,0.6542 -0.457905,0.6542 -0.76317,0 -0.474454,-1.0167 -2.235011,-1.0824 -2.235011,-0.083 0,0.4915 -0.340857,0.4513 -1.031083,-0.1215 -0.854331,-0.709 -1.143197,-0.6947 -1.685173,0.083 -0.498945,0.7164 -0.73279,0.7453 -0.985874,0.1215 -0.393968,-0.9709 -2.185211,-1.105 -2.185211,-0.1635 0,0.3598 -0.873865,0.6541 -1.94192,0.6541 -1.457391,0 -1.847964,-0.2448 -1.565385,-0.9812 0.244442,-0.637 -0.01681,-0.9812 -0.744664,-0.9812 -0.727865,0 -0.989106,0.3442 -0.744663,0.9812 0.227055,0.5917 0.0033,0.9812 -0.563635,0.9812 -0.56695,0 -0.790689,-0.3895 -0.563634,-0.9812 0.286563,-0.7468 -0.125819,-0.9812 -1.725887,-0.9812 -1.600068,0 -2.01245,0.2344 -1.725887,0.9812 0.254837,0.6641 -0.03304,0.9812 -0.890709,0.9812 -0.857681,0 -1.145546,-0.3171 -0.890709,-0.9812 0.244442,-0.637 -0.01681,-0.9812 -0.744664,-0.9812 -0.727867,0 -0.989105,0.3442 -0.744666,0.9812 0.30356,0.7911 -0.253356,0.9812 -2.873684,0.9812 -1.787617,0 -3.250214,-0.2943 -3.250214,-0.6541 0,-0.9388 -1.781434,-0.8084 -2.235009,0.1635 -0.305269,0.6542 -0.457905,0.6542 -0.763174,0 -0.209873,-0.4497 -0.774077,-0.8177 -1.253786,-0.8177 -0.479709,0 -1.020673,0.368 -1.202142,0.8177 -0.263955,0.6542 -0.340272,0.6542 -0.381587,0 -0.06701,-1.061 -1.791511,-1.061 -2.286652,0 -0.305269,0.6542 -0.457905,0.6542 -0.763174,0 -0.453575,-0.9719 -2.235009,-1.1023 -2.235009,-0.1635 0,0.3598 -0.735918,0.6541 -1.635373,0.6541 -1.017565,0 -1.635372,-0.3707 -1.635372,-0.9812 0,-0.5397 -0.294367,-0.9812 -0.654149,-0.9812 -0.359782,0 -0.654149,0.4415 -0.654149,0.9812 0,0.5397 -0.432312,0.9812 -0.960693,0.9812 -0.585197,0 -0.813523,-0.3835 -0.584162,-0.9812 0.286561,-0.7468 -0.125825,-0.9812 -1.72589,-0.9812 -1.600066,0 -2.012452,0.2344 -1.72589,0.9812 0.254841,0.6641 -0.03303,0.9812 -0.890706,0.9812 -0.857681,0 -1.145547,-0.3171 -0.890706,-0.9812 0.244439,-0.637 -0.0168,-0.9812 -0.744667,-0.9812 -0.727867,0 -0.989105,0.3442 -0.744666,0.9812 0.30356,0.7911 -0.253356,0.9812 -2.873684,0.9812 -1.787617,0 -3.250214,-0.2943 -3.250214,-0.6541 0,-0.9415 -1.791241,-0.8074 -2.185208,0.1635 -0.253089,0.6238 -0.486931,0.5949 -0.98588,-0.1215 -0.541972,-0.7781 -0.830836,-0.7924 -1.685174,-0.083 -0.690222,0.5728 -1.031079,0.613 -1.031079,0.1215 0,-0.999 -1.760556,-0.9333 -2.235009,0.083 -0.30527,0.6542 -0.457905,0.6542 -0.763174,0 -0.453575,-0.9719 -2.235009,-1.1023 -2.235009,-0.1635 0,0.3598 -0.726679,0.6541 -1.614842,0.6541 -1.166663,0 -1.510341,-0.2723 -1.238311,-0.9812 0.244439,-0.637 -0.0168,-0.9812 -0.744667,-0.9812 -0.727867,0 -0.989105,0.3442 -0.744666,0.9812 0.254841,0.6641 -0.03303,0.9812 -0.890706,0.9812 -0.857681,0 -1.145547,-0.3171 -0.890706,-0.9812 0.244439,-0.637 -0.0168,-0.9812 -0.744667,-0.9812 -0.727867,0 -0.989105,0.3442 -0.744666,0.9812 0.22936,0.5977 10e-4,0.9812 -0.584162,0.9812 -0.528381,0 -0.960693,-0.4415 -0.960693,-0.9812 0,-0.5397 -0.473045,-0.9812 -1.05121,-0.9812 -0.665657,0 -0.91311,0.3599 -0.67468,0.9812 0.227061,0.5917 0.0033,0.9812 -0.563632,0.9812 -0.566948,0 -0.790692,-0.3895 -0.563632,-0.9812 0.244439,-0.637 -0.0168,-0.9812 -0.744666,-0.9812 -0.727867,0 -0.989105,0.3442 -0.744666,0.9812 0.256114,0.6674 -0.03531,0.9812 -0.911236,0.9812 -1.253665,0 -1.287768,-0.5456 -1.287768,-20.6016 v -20.6016 l 49.807622,-0.1676 c 43.5221908,-0.1465 49.8656961,-0.2915 50.2678014,-1.1489 0.2530968,-0.5396 0.8710191,-1.7171 1.3731635,-2.6166 0.5727074,-1.0258 0.9218398,-3.6895 0.936761,-7.1469 0.016157,-3.7457 0.2801785,-5.597 0.8240642,-5.7783 0.9781948,-0.3261 1.1183789,-8.0075 0.1461303,-8.0075 -1.0199753,0 -0.7686643,-1.7072 0.3932613,-2.6715 0.8238614,-0.6838 0.9938224,-1.8178 0.7963021,-5.3133 -0.1870277,-3.3101 -0.036999,-4.4441 0.5879622,-4.4441 1.1859787,0 1.1071407,-5.7127 -0.095427,-6.9152 -0.7942416,-0.7943 -8.7469076,-0.9345 -52.986069,-0.9345 h -52.051571 l -0.05786,-12.9195 c -0.06869,-15.3392 0.08673,-26.5002 0.375598,-26.971 0.114618,-0.1868 5.020664,-0.1925 10.902324,-0.013 5.88166,0.1799 16.09164,0.1799 22.688845,0 6.597205,-0.1799 12.079791,-0.2412 12.183525,-0.1363 0.144864,0.1465 42.4198519,0.2725 44.6707393,0.1331 4.5802009,-0.2836 43.7618817,0.17 44.0922727,0.5105 0.252901,0.2606 0.140734,4.595 -0.249263,9.632 -0.389991,5.0369 -0.736899,10.7771 -0.770895,12.7559 -0.03402,1.9788 -0.305835,3.7767 -0.604074,3.9954 -0.29824,0.2187 -0.542251,2.7914 -0.542251,5.7171 0,2.9258 -0.197539,5.4418 -0.438973,5.5913 -0.241433,0.1494 -0.432327,2.7282 -0.424209,5.7305 0.0081,3.0023 -0.256027,5.6501 -0.586987,5.884 -0.330961,0.2339 -0.731143,5.2365 -0.889296,11.117 -0.167109,6.2137 -0.565963,10.8639 -0.952297,11.1027 -0.365617,0.2259 -0.769195,2.2881 -0.896839,4.5825 -0.628022,11.2888 -1.145434,17.3153 -1.537564,17.9088 -0.237718,0.3598 -0.42012,3.0827 -0.40533,6.0509 0.01478,2.9682 -0.165153,5.3967 -0.399862,5.3967 -0.544127,0 -1.278933,9.9946 -1.190302,16.1902 0.03768,2.6341 -0.210761,4.7426 -0.558807,4.7426 -0.348151,0 -0.650878,2.5749 -0.681179,5.7939 -0.03002,3.1867 -0.34734,6.5641 -0.705211,7.5054 -0.357866,0.9413 -0.551389,3.4118 -0.430051,5.4901 0.121345,2.0783 -0.0059,4.0731 -0.282802,4.4329 -0.276881,0.3597 -0.688923,3.3034 -0.915651,6.5415 -0.825177,11.7847 -0.939057,13.2197 -1.687273,21.2598 -0.418525,4.4973 -0.766565,10.1638 -0.773427,12.5924 -0.0069,2.4285 -0.255648,4.4155 -0.552854,4.4155 -0.535846,0 -1.118562,7.1133 -1.433463,17.4985 -0.09,2.9682 -0.366689,5.3967 -0.61486,5.3967 -0.464368,0 -1.056235,7.4589 -1.323632,16.6808 -0.08346,2.8782 -0.42394,5.4221 -0.756628,5.653 -0.332687,0.231 -0.744487,5.2352 -0.915115,11.1206 -0.188238,6.4927 -0.582905,10.8712 -1.003641,11.1344 -0.388852,0.2432 -0.722828,2.829 -0.760389,5.8873 -0.03683,2.9995 -0.283672,5.7967 -0.548524,6.2161 -0.264845,0.4193 -0.460141,2.4799 -0.433975,4.579 0.02617,2.0991 -0.259593,4.8219 -0.635022,6.0507 -0.375423,1.2287 -0.520107,2.8814 -0.321514,3.6727 0.404983,1.6136 0.254392,1.7079 -6.2777444,3.9344 -2.3385827,0.7971 -4.3500908,1.1903 -4.470016,0.8737 -0.2838156,-0.7492 -2.071474,-0.7499 -2.071474,-8e-4 0,0.6251 -2.1180102,1.4886 -6.2144155,2.5336 -1.4391278,0.3671 -5.7841421,1.5841 -9.6555791,2.7044 -3.871443,1.1204 -7.47744,2.037 -8.013325,2.037 -0.535892,0 -0.974342,0.2732 -0.974342,0.6071 0,0.3339 -1.619019,0.8094 -3.59782,1.0566 -1.9788,0.2472 -3.597819,0.7443 -3.597819,1.1046 0,0.3603 -0.622652,0.4922 -1.383674,0.2932 -0.761021,-0.199 -1.864897,-0.1123 -2.453059,0.1928 -2.150678,1.1154 -7.308363,2.7348 -9.625911,3.0222 -1.308539,0.1623 -2.916542,0.5827 -3.57334,0.9342 -0.656798,0.3515 -1.802265,0.6391 -2.545482,0.6391 -0.743216,0 -1.351302,0.2564 -1.351302,0.5699 0,0.3134 -1.545427,0.7721 -3.434282,1.0192 -3.784525,0.4952 -8.989351,2.0199 -11.774682,3.4491 -0.989401,0.5077 -1.79891,0.7232 -1.79891,0.4789 0,-0.2442 -0.367959,-0.1421 -0.817686,0.2271 -0.449728,0.3692 -2.510297,0.8807 -4.579043,1.1367 -2.068747,0.256 -3.761357,0.7079 -3.761357,1.0042 0,0.2963 -1.398244,0.7424 -3.107208,0.9915 -1.708964,0.249 -4.137492,0.8324 -5.396729,1.2963 -1.259237,0.464 -3.414302,1.0314 -4.789034,1.261 -1.374732,0.2296 -2.91002,0.575 -3.411752,0.7676 -0.761766,0.2923 -0.942931,-2.2767 -1.098307,-15.5744 z m 23.036222,-12.6538 c 0,-0.5396 -0.441551,-0.9812 -0.981224,-0.9812 -0.539673,0 -0.981223,0.4416 -0.981223,0.9812 0,0.5397 0.44155,0.9813 0.981223,0.9813 0.539673,0 0.981224,-0.4416 0.981224,-0.9813 z m 13.737129,-15.0999 c 0,-0.5696 -0.349561,-0.9192 -0.776802,-0.7768 -1.212938,0.4043 -1.414113,1.8125 -0.258934,1.8125 0.569655,0 1.035736,-0.466 1.035736,-1.0357 z m 32.053301,-0.5996 c 0,-0.5397 -0.441551,-0.9813 -0.981224,-0.9813 -0.539672,0 -0.981223,0.4416 -0.981223,0.9813 0,0.5396 0.441551,0.9812 0.981223,0.9812 0.539673,0 0.981224,-0.4416 0.981224,-0.9812 z m -62.144155,-179.2914 c 0,-1.1551 -1.408225,-0.954 -1.812538,0.259 -0.142414,0.4272 0.207147,0.7768 0.776802,0.7768 0.569655,0 1.035736,-0.4661 1.035736,-1.0358 z m 17.007874,-0.5996 c 0,-0.5397 -0.441551,-0.9812 -0.981224,-0.9812 -1.021502,0 -1.29781,0.7736 -0.545124,1.5263 0.752686,0.7527 1.526348,0.4764 1.526348,-0.5451 z m 14.391278,0 c 0,-0.5397 -0.441551,-0.9812 -0.981224,-0.9812 -0.539673,0 -0.981223,0.4415 -0.981223,0.9812 0,0.5397 0.44155,0.9812 0.981223,0.9812 0.539673,0 0.981224,-0.4415 0.981224,-0.9812 z m 15.699576,0 c 0,-0.5397 -0.441551,-0.9812 -0.981224,-0.9812 -1.021502,0 -1.29781,0.7736 -0.545124,1.5263 0.752686,0.7527 1.526348,0.4764 1.526348,-0.5451 z m 14.241367,-0.2044 c 0.142414,-0.4273 -0.207143,-0.7768 -0.776802,-0.7768 -0.569653,0 -1.035734,0.4661 -1.035734,1.0357 0,1.1552 1.408226,0.954 1.812536,-0.2589 z m 15.849487,0.2044 c 0,-0.5397 -0.441551,-0.9812 -0.981224,-0.9812 -0.539672,0 -0.981223,0.4415 -0.981223,0.9812 0,0.5397 0.441551,0.9812 0.981223,0.9812 0.539673,0 0.981224,-0.4415 0.981224,-0.9812 z m 15.045427,-1.9625 c 0,-0.5396 -0.44155057,-0.9812 -0.9812235,-0.9812 -0.53967293,0 -0.9812235,0.4416 -0.9812235,0.9812 0,0.5397 0.44155057,0.9813 0.9812235,0.9813 0.53967293,0 0.9812235,-0.4416 0.9812235,-0.9813 z"
         id="path188183"
         transform="scale(0.26458333)" />
      <path
         style="opacity:1;fill:#ff6600;fill-opacity:1;stroke:none;stroke-width:1.64413;stroke-miterlimit:4;stroke-dasharray:none;stroke-opacity:1"
         d="m -147.83767,2911.3702 c 0,-0.4038 -0.73592,-0.7342 -1.63538,-0.7342 -0.89945,0 -2.2241,-0.5888 -2.94367,-1.3083 -0.71956,-0.7196 -1.01393,-1.3083 -0.65415,-1.3083 0.83899,0 0.86207,-8.1449 0.0274,-9.6576 -0.34473,-0.6247 -0.81818,-5.7914 -1.0521,-11.4815 -0.33555,-8.1621 -0.60715,-10.2759 -1.28685,-10.015 -0.61151,0.2346 -0.79386,-0.1801 -0.62835,-1.4291 0.12826,-0.9678 0.25348,-2.2939 0.27827,-2.947 0.0391,-1.031 0.58326,-1.1691 4.1335,-1.0489 2.24864,0.076 14.79532,0.082 27.88153,0.014 13.0862,-0.069 23.977647,0.06 24.20321,0.2854 0.643467,0.6435 0.766346,37.1519 0.128493,38.1765 -0.472579,0.7591 -4.506983,0.8999 -23.635383,0.8253 -16.07147,-0.063 -23.331,0.1303 -23.94101,0.6366 -0.64278,0.5334 -0.87548,0.5314 -0.87548,-0.01 z"
         id="path188185"
         transform="scale(0.26458333)" />
      <path
         style="opacity:1;fill:#d45500;fill-opacity:1;stroke:none;stroke-width:1.64413;stroke-miterlimit:4;stroke-dasharray:none;stroke-opacity:1"
         d="m -95.930115,3019.3819 c -1.333424,-0.219 -1.417381,-0.6403 -1.635373,-8.2073 -0.221212,-7.6789 0.323666,-57.2375 0.610925,-55.5659 0.182059,1.0595 1.881101,1.0595 2.37552,0 0.305269,-0.6541 0.457904,-0.6541 0.763174,0 0.492609,1.0556 2.029451,1.0556 2.45777,0 0.249826,-0.6157 0.505682,-0.5753 1.035736,0.1636 0.625733,0.8722 0.782166,0.8722 1.4079,0 0.530054,-0.7389 0.78591,-0.7793 1.035736,-0.1636 0.428319,1.0556 1.96516,1.0556 2.45777,0 0.305269,-0.6541 0.457904,-0.6541 0.763174,0 0.541093,1.1595 15.703607,1.1595 16.2447,0 0.305269,-0.6541 0.457905,-0.6541 0.763174,0 0.492624,1.0556 2.029974,1.0556 2.455927,0 0.263955,-0.6541 0.340273,-0.6541 0.381588,0 0.06701,1.061 1.791511,1.061 2.286652,0 0.305269,-0.6541 0.457905,-0.6541 0.763174,0 0.474453,1.0167 2.235009,1.0824 2.235009,0.083 0,-0.4916 0.340857,-0.4514 1.031079,0.1214 0.854338,0.7091 1.143202,0.6948 1.685174,-0.083 0.498949,-0.7164 0.732791,-0.7452 0.98588,-0.1215 0.428661,1.0565 1.979308,1.0565 2.407969,0 0.225269,-0.5552 0.505281,-0.5976 0.872199,-0.1321 0.297227,0.377 1.236012,0.7292 2.086187,0.7826 0.850177,0.053 1.643289,0.1946 1.762472,0.3137 0.119183,0.1192 0.305848,2.6865 0.41481,5.705 0.142547,3.949 -0.03071,5.5646 -0.617711,5.7603 -0.987378,0.3291 -1.141822,7.3585 -0.161675,7.3585 0.962826,0 0.795895,1.26 -0.313972,2.3699 -0.722752,0.7228 -0.919551,2.2201 -0.776485,5.9081 0.140292,3.6164 -0.03848,5.0283 -0.667252,5.2695 -1.167138,0.4479 -1.204379,9.0985 -0.0412,9.5705 0.62749,0.2546 0.60313,0.4815 -0.104726,0.9755 -0.532203,0.3715 -1.051901,2.2052 -1.228509,4.3349 -0.285757,3.4459 -0.430943,3.7161 -2.184796,4.0669 -1.033287,0.2066 -1.878701,0.6333 -1.878701,0.9481 0,0.3148 -1.012912,0.5724 -2.250916,0.5724 -1.238003,0 -2.424899,0.2815 -2.637545,0.6256 -0.212646,0.344 -0.818753,0.4597 -1.346904,0.257 -0.52815,-0.2026 -0.960274,-0.043 -0.960274,0.3557 0,0.3983 -0.865728,0.7241 -1.923841,0.7241 -1.058113,0 -2.106438,0.2955 -2.329611,0.6566 -0.223174,0.3611 -1.123648,0.4763 -2.001053,0.2561 -0.972261,-0.244 -1.595283,-0.1172 -1.595283,0.3247 0,0.4098 -1.137687,0.7251 -2.616596,0.7251 -1.439128,0 -2.616596,0.2609 -2.616596,0.5798 0,0.319 -1.324652,0.7786 -2.943671,1.0214 -1.619018,0.2427 -2.94367,0.6901 -2.94367,0.9941 0,0.3039 -1.528242,0.7628 -3.396094,1.0197 -1.867852,0.2569 -3.789756,0.8608 -4.270899,1.3419 -0.481143,0.4812 -1.311585,0.7072 -1.845429,0.5024 -0.533843,-0.2049 -1.334833,-0.1051 -1.779979,0.2218 -0.445146,0.3268 -1.441869,0.4904 -2.21494,0.3634 z m 6.311702,-44.3122 c 0,-0.5397 -0.441551,-0.9813 -0.981224,-0.9813 -0.539673,0 -0.981223,0.4416 -0.981223,0.9813 0,0.5396 0.44155,0.9812 0.981223,0.9812 0.539673,0 0.981224,-0.4416 0.981224,-0.9812 z m 30.090854,-0.6542 c 0,-0.5397 -0.441551,-0.9812 -0.981224,-0.9812 -0.539673,0 -0.981223,0.4415 -0.981223,0.9812 0,0.5397 0.44155,0.9812 0.981223,0.9812 0.539673,0 0.981224,-0.4415 0.981224,-0.9812 z"
         id="path188187"
         transform="scale(0.26458333)" />
    </g>
  </g>
</svg>
