<?xml version="1.0" encoding="UTF-8" standalone="no"?>
<!-- Created with Inkscape (http://www.inkscape.org/) -->

<svg
   width="100"
   height="100"
   viewBox="0 0 26.458333 26.458334"
   version="1.1"
   id="svg2922"
   inkscape:version="1.1.2 (b8e25be833, 2022-02-05)"
   sodipodi:docname="js.svg"
   xmlns:inkscape="http://www.inkscape.org/namespaces/inkscape"
   xmlns:sodipodi="http://sodipodi.sourceforge.net/DTD/sodipodi-0.dtd"
   xmlns="http://www.w3.org/2000/svg"
   xmlns:svg="http://www.w3.org/2000/svg">
  <sodipodi:namedview
     id="namedview2924"
     pagecolor="#505050"
     bordercolor="#ffffff"
     borderopacity="1"
     inkscape:pageshadow="0"
     inkscape:pageopacity="0"
     inkscape:pagecheckerboard="1"
     inkscape:document-units="mm"
     showgrid="false"
     units="px"
     inkscape:zoom="4.0718557"
     inkscape:cx="66.677215"
     inkscape:cy="46.0478"
     inkscape:window-width="1920"
     inkscape:window-height="1001"
     inkscape:window-x="-9"
     inkscape:window-y="-9"
     inkscape:window-maximized="1"
     inkscape:current-layer="layer1" />
  <defs
     id="defs2919" />
  <g
     inkscape:label="Layer 1"
     inkscape:groupmode="layer"
     id="layer1">
    <path
       style="fill:#d1b21b;fill-opacity:1;stroke:none;stroke-width:0.263314;stroke-miterlimit:4;stroke-dasharray:none;stroke-opacity:1"
       d="m 13.046031,24.73526 c -0.0958,-0.0536 -0.17421,-0.0658 -0.17421,-0.0271 0,0.0387 -0.0589,0.0236 -0.13096,-0.0335 -0.10894,-0.0865 -0.46515,-0.18509 -1.07384,-0.29731 -0.0576,-0.0106 -0.12833,-0.0284 -0.15714,-0.0394 -0.0288,-0.0111 -0.1231,-0.0388 -0.20953,-0.0616 -0.0864,-0.0228 -0.62859,-0.18361 -1.2048,-0.35733 -0.5761995,-0.17372 -1.1509395,-0.31646 -1.2771795,-0.31718 -0.12624,-6.5e-4 -0.26066,-0.0517 -0.2987,-0.11324 -0.038,-0.0616 -0.12937,-0.0888 -0.20295,-0.0606 -0.0736,0.0282 -0.17489,0.0136 -0.22512,-0.0325 -0.0502,-0.0461 -0.51564,-0.1889 -1.03422,-0.31734 -0.51859,-0.12843 -1.0136,-0.25974 -1.10003,-0.2918 -0.20544,-0.0762 -0.2914,-0.0998 -0.42165,-0.11568 -0.22518,-0.0275 -0.36217,-0.65737 -0.46994,-2.16077 -0.0248,-0.34572 -0.0701,-0.93503 -0.10071,-1.30956 -0.0306,-0.37453 -0.0598,-0.75169 -0.0649,-0.83812 -0.0218,-0.37086 -0.30668,-3.328 -0.34816,-3.61438 -0.045,-0.31035 -0.1762,-1.84295 -0.18392,-2.14768 -0.002,-0.0864 -0.0699,-0.91145 -0.15038,-1.83338 -0.0805,-0.9219304 -0.16849,-1.9591004 -0.19549,-2.3048304 -0.0572,-0.73278 -0.11667,-1.34457 -0.20869,-2.14768 -0.0786,-0.68594 -0.12688,-1.2746 -0.217,-2.6453 l -0.0672,-1.02146 h 9.6912095 c 10.22068,0 9.92735,-0.0139 9.68399,0.45805 -0.0556,0.10788 -0.0727,0.3382 -0.038,0.51182 0.0347,0.17362 0.0196,0.48609 -0.0336,0.69436 -0.0532,0.20828 -0.13094,0.85012 -0.17272,1.42633 -0.12349,1.70258 -0.14288,1.95701 -0.20355,2.6715 -0.0318,0.37454 -0.0815,1.01098 -0.1105,1.41433 -0.029,0.4033404 -0.0761,0.8983504 -0.10468,1.1000204 -0.0286,0.20168 -0.0696,0.6024 -0.091,0.8905 -0.0215,0.28811 -0.0678,0.75955 -0.10289,1.04765 -0.0633,0.51885 -0.12013,1.2012 -0.21831,2.61912 -0.0279,0.40335 -0.0736,0.85121 -0.10154,0.99527 -0.0279,0.14405 -0.0786,0.72848 -0.1125,1.29874 -0.034,0.57026 -0.082,1.18313 -0.10671,1.36194 -0.062,0.44863 -0.16257,1.48556 -0.19988,2.06172 -0.0543,0.83927 -0.17682,1.36718 -0.32796,1.41363 -0.0807,0.0248 -0.22921,0.0758 -0.33004,0.11329 -0.10084,0.0375 -0.25406,0.082 -0.34049,0.0989 -0.36431,0.0712 -1.1079,0.28967 -1.2048,0.35395 -0.0576,0.0382 -0.23598,0.0777 -0.39635,0.0876 -0.16038,0.01 -0.43146,0.0904 -0.6024,0.17883 -0.17094,0.0884 -0.3108,0.13895 -0.3108,0.11233 0,-0.0482 -1.37739,0.30487 -1.67624,0.4297 -0.0864,0.0361 -0.19747,0.0565 -0.24674,0.0453 -0.0493,-0.0112 -0.14856,0.0286 -0.22062,0.0884 -0.0721,0.0598 -0.26745,0.12775 -0.43422,0.15102 -0.5729,0.0799 -0.98863,0.19385 -1.04599,0.28666 -0.0316,0.0511 -0.0993,0.0671 -0.15035,0.0355 -0.0511,-0.0316 -0.25232,0.009 -0.44714,0.0906 -0.23484,0.0981 -0.41293,0.11514 -0.52843,0.0505 z m -0.40919,-11.3362 -0.0269,-6.9275604 -2.8082895,-0.0279 -2.80828,-0.0279 0.0626,1.12794 c 0.0344,0.62037 0.0863,1.20717 0.11534,1.304 0.0648,0.21632 0.49327,0.31826 1.22068,0.29044 0.30316,-0.0116 0.77513,-0.0152 1.04883,-0.008 l 0.49763,0.013 V 13.23259 c 0,4.02886 -0.003,4.08788 -0.20528,3.97965 -0.11291,-0.0604 -0.24256,-0.10365 -0.28811,-0.096 -0.50806,0.0848 -0.64246,-0.0719 -0.72849,-0.84911 -0.0287,-0.25929 -0.0858,-0.63645 -0.1268,-0.83812 l -0.0746,-0.36668 -1.13278,-0.0298 c -0.71418,-0.0188 -1.18417,0.0128 -1.27183,0.0856 -0.15897,0.13192 -0.16734,0.35656 -0.0409,1.0967 0.10527,0.6162 0.22444,2.06042 0.20849,2.52686 -0.009,0.26576 0.0431,0.34732 0.27929,0.43668 0.15976,0.0604 0.36118,0.1133 0.44761,0.11747 0.19724,0.01 0.49989,0.0643 0.83812,0.15172 0.14405,0.0372 0.42691,0.0883 0.62859,0.11342 0.20167,0.0251 0.60239,0.0983 0.8905,0.16259 0.2881,0.0643 0.59454,0.13135 0.6809595,0.14908 0.0864,0.0177 0.24169,0.0682 0.34501,0.11211 0.10332,0.0439 0.2156,0.0521 0.2495,0.0182 0.0339,-0.0339 0.13841,-0.0206 0.23226,0.0297 0.0938,0.0502 0.39762,0.11496 0.67508,0.14387 0.27744,0.0289 0.52644,0.0746 0.55332,0.10144 0.0269,0.0269 0.16509,0.0489 0.30715,0.0489 h 0.25829 z m 1.73874,6.88178 c 0.0396,-0.0396 0.15352,-0.0834 0.25318,-0.0973 0.79208,-0.11074 1.09202,-0.17141 1.59553,-0.3227 0.31692,-0.0952 0.61653,-0.16327 0.66581,-0.15119 0.0493,0.0121 0.1479,-0.0264 0.21916,-0.0856 0.0713,-0.0591 0.15312,-0.084 0.1819,-0.0552 0.0762,0.0762 1.55369,-0.26667 1.8973,-0.44023 0.25537,-0.12899 0.29069,-0.20394 0.27712,-0.58803 -0.009,-0.24211 0.0102,-0.6052 0.0416,-0.80688 0.063,-0.40454 0.14292,-1.33719 0.23778,-2.77626 0.0342,-0.51859 0.0833,-1.10789 0.10921,-1.30956 0.0259,-0.20167 0.0589,-0.55525 0.0734,-0.78574 0.0145,-0.23048 0.0628,-0.57121 0.10749,-0.75718 0.0446,-0.18598 0.0509,-0.43348 0.0139,-0.55002 -0.0638,-0.20099 -0.15308,-0.21188 -1.73642,-0.21188 h -1.66918 V 10.24551 9.1479496 l 1.7973,-0.0287 c 1.7049,-0.0272 1.79902,-0.0394 1.83097,-0.23819 0.12008,-0.74701 0.22363,-2.31829 0.15718,-2.38495 -0.0439,-0.0441 -1.53828,-0.0676 -3.32079,-0.0524 l -3.24093,0.0277 -0.0276,3.7715204 -0.0276,3.77154 1.676,-0.0312 1.676,-0.0312 -0.048,0.555 c -0.21131,2.4409 -0.29052,2.76592 -0.64127,2.63132 -0.0745,-0.0286 -0.19663,-0.0138 -0.27142,0.0329 -0.1445,0.0902 -0.23668,0.112 -0.81694,0.1929 -1.13971,0.1589 -1.32118,0.1955 -1.44052,0.29062 -0.13981,0.11144 -0.19521,2.4939 -0.0611,2.628 0.0911,0.0911 0.3991,0.0898 0.49104,-0.002 z"
       id="path199866" />
  </g>
</svg>
