<?xml version="1.0" encoding="UTF-8" standalone="no"?>
<!-- Created with Inkscape (http://www.inkscape.org/) -->

<svg
   width="150"
   height="100"
   viewBox="0 0 39.6875 26.458334"
   version="1.1"
   id="svg2922"
   inkscape:version="1.1.2 (b8e25be833, 2022-02-05)"
   sodipodi:docname="mysql.svg"
   xmlns:inkscape="http://www.inkscape.org/namespaces/inkscape"
   xmlns:sodipodi="http://sodipodi.sourceforge.net/DTD/sodipodi-0.dtd"
   xmlns="http://www.w3.org/2000/svg"
   xmlns:svg="http://www.w3.org/2000/svg">
  <sodipodi:namedview
     id="namedview2924"
     pagecolor="#505050"
     bordercolor="#ffffff"
     borderopacity="1"
     inkscape:pageshadow="0"
     inkscape:pageopacity="0"
     inkscape:pagecheckerboard="1"
     inkscape:document-units="mm"
     showgrid="false"
     units="px"
     inkscape:zoom="4.0718557"
     inkscape:cx="66.677215"
     inkscape:cy="46.0478"
     inkscape:window-width="1920"
     inkscape:window-height="1001"
     inkscape:window-x="-9"
     inkscape:window-y="-9"
     inkscape:window-maximized="1"
     inkscape:current-layer="layer1" />
  <defs
     id="defs2919" />
  <g
     inkscape:label="Layer 1"
     inkscape:groupmode="layer"
     id="layer1">
    <g
       id="g225310"
       transform="matrix(0.74391502,0,0,0.74391502,34.430706,-587.84271)">
      <rect
         style="opacity:1;fill:#00003e;fill-opacity:1;stroke:none;stroke-width:0.665001;stroke-miterlimit:4;stroke-dasharray:none;stroke-opacity:1"
         id="rect224881"
         width="48.464012"
         height="21.050026"
         x="-43.568653"
         y="797.45325"
         ry="3.9162829" />
      <g
         id="g224995"
         transform="matrix(0.45333349,0,0,0.45333349,-115.39482,415.10758)">
        <path
           style="opacity:1;fill:#025f8b;fill-opacity:1;stroke:none;stroke-width:1.16257;stroke-miterlimit:4;stroke-dasharray:none;stroke-opacity:1"
           d="m 645.14607,3296.9758 c 1.96469,-0.2438 2.06172,-1.5156 0.11564,-1.5156 -0.76322,0 -1.38766,-0.1886 -1.38766,-0.4192 0,-0.2306 0.38791,-0.3178 0.86203,-0.1938 0.73903,0.1932 0.86203,-0.049 0.86203,-1.6997 0,-1.6505 -0.123,-1.893 -0.86203,-1.6997 -0.51772,0.1354 -0.86203,-0.017 -0.86203,-0.3818 0,-0.3795 0.34694,-0.5165 0.9251,-0.3653 0.66234,0.1732 0.92511,0.014 0.92511,-0.5598 0,-0.574 -0.26277,-0.733 -0.92511,-0.5598 -0.57816,0.1512 -0.9251,0.014 -0.9251,-0.3653 0,-0.3892 0.34889,-0.516 0.97176,-0.3531 0.7697,0.2012 0.93433,0.072 0.79174,-0.6215 -0.0996,-0.4844 -0.53377,-0.8469 -0.97176,-0.8114 -0.49635,0.04 -0.79174,-0.2693 -0.79174,-0.8297 0,-0.5888 0.27068,-0.8476 0.7927,-0.7581 0.47462,0.081 0.86455,-0.2155 0.97176,-0.7397 0.14179,-0.6934 -0.0232,-0.8227 -0.7927,-0.6215 -0.62287,0.1629 -0.97176,0.036 -0.97176,-0.3531 0,-0.3795 0.34694,-0.5165 0.9251,-0.3653 0.64338,0.1682 0.92511,0.014 0.92511,-0.5059 0,-0.4394 -0.3815,-0.7478 -0.92511,-0.7478 -0.59859,0 -0.9251,-0.3083 -0.9251,-0.8737 0,-0.5413 0.30122,-0.8492 0.79174,-0.8094 0.43799,0.035 0.87218,-0.327 0.97176,-0.8114 0.14259,-0.6936 -0.022,-0.8228 -0.79174,-0.6215 -0.78045,0.2041 -0.97176,0.044 -0.97176,-0.8157 0,-0.842 0.19693,-1.0182 0.9251,-0.8278 0.64338,0.1682 0.92511,0.014 0.92511,-0.5059 0,-0.4394 -0.3815,-0.7477 -0.92511,-0.7477 -0.59859,0 -0.9251,-0.3084 -0.9251,-0.8738 0,-0.5413 0.30122,-0.8492 0.79174,-0.8094 0.43799,0.036 0.87218,-0.327 0.97176,-0.8114 0.14259,-0.6935 -0.022,-0.8228 -0.79174,-0.6215 -0.78045,0.2041 -0.97176,0.043 -0.97176,-0.8156 0,-0.8421 0.19693,-1.0183 0.9251,-0.8279 0.66234,0.1732 0.92511,0.014 0.92511,-0.5598 0,-0.574 -0.26277,-0.733 -0.92511,-0.5598 -0.72667,0.19 -0.9251,0.014 -0.9251,-0.8198 0,-0.7187 0.25576,-1.0409 0.79174,-0.9974 0.43799,0.035 0.87218,-0.327 0.97176,-0.8114 0.14259,-0.6935 -0.022,-0.8228 -0.79174,-0.6215 -0.53447,0.1398 -0.97176,0.065 -0.97176,-0.1651 0,-0.2306 0.41629,-0.4193 0.9251,-0.4193 0.54361,0 0.92511,-0.3083 0.92511,-0.7477 0,-0.5201 -0.28173,-0.6741 -0.92511,-0.5059 -0.57816,0.1512 -0.9251,0.014 -0.9251,-0.3653 0,-0.3599 0.34354,-0.5174 0.84348,-0.3866 0.74864,0.1957 0.84348,-0.099 0.84348,-2.62 0,-2.5212 -0.0948,-2.8157 -0.84348,-2.6199 -0.49994,0.1307 -0.84348,-0.027 -0.84348,-0.3867 0,-0.3892 0.34889,-0.516 0.97176,-0.3531 0.7695,0.2012 0.93449,0.072 0.7927,-0.6215 -0.10721,-0.5243 -0.49714,-0.8211 -0.97176,-0.7397 -0.52202,0.09 -0.7927,-0.1693 -0.7927,-0.7581 0,-0.5675 0.2956,-0.8705 0.80946,-0.8297 0.68803,0.055 0.83036,-0.4215 0.94867,-3.1736 0.0765,-1.7809 0.33674,-3.4356 0.57819,-3.6773 0.24145,-0.2417 0.439,-0.8141 0.439,-1.2721 0,-0.5157 0.34162,-0.8326 0.8978,-0.8326 0.4938,0 1.02645,-0.2081 1.18369,-0.4625 0.15723,-0.2544 1.10618,-0.4626 2.10878,-0.4626 1.53075,0 1.82292,-0.1523 1.82292,-0.9504 0,-0.8453 0.2431,-0.9349 2.19713,-0.8095 1.58197,0.1015 2.19712,0.3353 2.19712,0.8348 0,0.4206 0.52358,0.7537 1.3293,0.8458 1.45325,0.166 3.52751,1.9485 3.52751,3.0313 0,0.3747 0.52037,1.0906 1.15638,1.5909 0.63602,0.5003 1.15639,1.244 1.15639,1.6525 0,0.4086 0.20815,0.7429 0.46255,0.7429 0.2544,0 0.46255,0.4041 0.46255,0.8978 0,0.4938 0.20815,1.0265 0.46256,1.1837 0.2544,0.1573 0.46255,0.6899 0.46255,1.1837 0,0.4938 0.20815,0.8978 0.46255,0.8978 0.25441,0 0.46256,0.6245 0.46256,1.3877 0,0.7632 0.20815,1.3876 0.46255,1.3876 0.2544,0 0.46255,0.3841 0.46255,0.8535 0,0.8759 1.34757,2.3844 2.13014,2.3844 0.24109,0 0.36182,0.8026 0.26827,1.7834 -0.1367,1.4336 0.0424,1.9554 0.91289,2.6597 0.75979,0.6148 1.03928,1.2559 0.9366,2.1483 -0.0805,0.6996 0.0756,1.272 0.34691,1.272 0.2713,0 0.49328,0.4163 0.49328,0.9251 0,0.5088 0.20815,0.9251 0.46255,0.9251 0.25441,0 0.46255,0.2803 0.46255,0.6228 0,1.1299 1.44288,3.5402 2.11929,3.5402 0.53135,0 0.55665,0.1717 0.12675,0.8601 -0.4321,0.6919 -0.36504,1.096 0.343,2.0669 0.48406,0.6638 1.10425,1.2135 1.37819,1.2215 0.2887,0.01 0.41247,0.5978 0.29442,1.4021 -0.12225,0.833 0.002,1.3877 0.31139,1.3877 0.28328,0 0.51505,0.2802 0.51505,0.6228 0,0.3425 0.32747,1.2792 0.72771,2.0815 0.63731,1.2775 0.96095,1.4587 2.60542,1.4587 2.00605,0 3.60517,-1.2416 3.60517,-2.7991 0,-0.4441 0.62444,-1.9945 1.38766,-3.4454 0.76321,-1.4509 1.38766,-2.9291 1.38766,-3.2848 0,-0.3558 0.20815,-0.6469 0.46255,-0.6469 0.2544,0 0.46255,-0.4163 0.46255,-0.9251 0,-0.5088 0.20815,-0.9251 0.46256,-0.9251 0.2544,0 0.46255,-0.7285 0.46255,-1.6189 0,-0.8905 0.18953,-1.619 0.42118,-1.619 0.47874,0 2.81669,-4.4906 2.81669,-5.4102 0,-0.3316 0.20815,-0.603 0.46256,-0.603 0.67138,0 0.56868,-2.1928 -0.11564,-2.4689 -0.31801,-0.1284 -0.10986,-0.2498 0.46255,-0.2699 0.70928,-0.025 1.04074,-0.3224 1.04074,-0.9343 0,-0.4938 0.20815,-1.0264 0.46256,-1.1837 0.2544,-0.1572 0.46255,-0.6899 0.46255,-1.1837 0,-0.4937 0.20815,-0.8978 0.46255,-0.8978 0.25441,0 0.46256,-0.4163 0.46256,-0.9251 0,-0.5088 0.1929,-0.9251 0.42867,-0.9251 0.49355,0 1.88409,-2.6128 1.88409,-3.5402 0,-0.3425 0.20815,-0.6228 0.46256,-0.6228 0.2544,0 0.46255,-0.4163 0.46255,-0.9251 0,-0.5088 0.20815,-0.9251 0.46255,-0.9251 0.25441,0 0.46256,-0.384 0.46256,-0.8534 0,-0.4694 0.41629,-1.2301 0.9251,-1.6906 0.50881,-0.4605 0.92511,-1.2213 0.92511,-1.6906 0,-0.602 0.34075,-0.8535 1.15638,-0.8535 0.63601,0 1.15638,-0.2081 1.15638,-0.4625 0,-0.2544 0.64873,-0.4626 1.44161,-0.4626 1.21388,0 1.40339,-0.1461 1.19969,-0.9251 -0.13306,-0.5088 -0.0533,-0.9251 0.17733,-0.9251 0.23059,0 0.41925,0.2318 0.41925,0.5151 0,0.3077 0.55154,0.4341 1.36991,0.314 0.90212,-0.1324 1.45582,0.023 1.62148,0.4545 0.1829,0.4766 0.88234,0.6119 2.56208,0.4955 1.27078,-0.088 2.31038,0.016 2.31022,0.2322 -1.6e-4,0.2158 0.72915,1.0484 1.62068,1.8502 1.59382,1.4335 1.62178,1.5218 1.66907,5.274 0.0357,2.8311 0.20592,3.816 0.65962,3.816 0.33635,0 0.70173,-0.4683 0.81199,-1.0407 0.11025,-0.5724 0.2288,7.974 0.26345,18.992 0.0346,11.018 -0.10071,19.9315 -0.30078,19.8079 -0.20007,-0.1237 -0.30805,-1.1767 -0.23996,-2.3401 0.0891,-1.5219 -0.0502,-2.1153 -0.49645,-2.1153 -0.45586,0 -0.62903,0.8508 -0.65337,3.2099 -0.0304,2.9433 0.0507,3.2262 0.97585,3.4062 0.55494,0.1079 -1.38474,0.1913 -4.31039,0.1852 -2.92565,-0.01 -4.64288,-0.095 -3.81606,-0.1976 1.64127,-0.2036 2.1461,-1.5156 0.58321,-1.5156 -0.90199,0 -0.92246,-0.3843 -1.04075,-19.5428 -0.1129,-18.2862 -0.1727,-19.5388 -0.93012,-19.4787 -0.44521,0.035 -0.80947,-0.2248 -0.80947,-0.5782 0,-0.3846 -0.486,-0.6424 -1.21111,-0.6424 -1.23791,0 -3.85476,2.4243 -3.86959,3.5848 -0.004,0.318 -0.24277,0.5782 -0.53046,0.5782 -0.33884,0 -0.43113,0.5666 -0.26202,1.6087 0.17669,1.0888 0.0877,1.5746 -0.27541,1.5033 -0.29506,-0.058 -0.60792,0.3629 -0.69526,0.9353 -0.0873,0.5724 -0.35246,1.0408 -0.58917,1.0408 -0.23671,0 -0.43038,0.4163 -0.43038,0.9251 0,0.5088 -0.20815,0.9251 -0.46256,0.9251 -0.2544,0 -0.46255,0.4163 -0.46255,0.9251 0,0.5088 -0.20815,0.9251 -0.46255,0.9251 -0.25441,0 -0.46256,0.3908 -0.46256,0.8685 0,0.4776 -0.31222,1.1276 -0.69383,1.4443 -0.3816,0.3167 -0.69383,0.9603 -0.69383,1.4302 0,0.4699 -0.41629,1.5956 -0.9251,2.5015 -0.50881,0.9059 -0.92511,1.9529 -0.92511,2.3268 0,0.3739 -0.20815,0.6798 -0.46255,0.6798 -0.25441,0 -0.46256,0.4163 -0.46256,0.9251 0,0.5088 -0.20814,0.9251 -0.46255,0.9251 -0.2544,0 -0.46255,0.6121 -0.46255,1.3603 0,0.7482 -0.20815,1.489 -0.46256,1.6463 -0.2544,0.1572 -0.46255,0.6676 -0.46255,1.1342 0,0.4665 -0.33599,0.9772 -0.74665,1.1348 -0.4999,0.1918 -0.67543,0.6591 -0.53113,1.414 0.13516,0.707 -0.0295,1.2215 -0.44162,1.3796 -0.41902,0.1608 -0.5505,0.5882 -0.36281,1.1796 0.17696,0.5575 0.0843,0.9273 -0.23242,0.9273 -0.76343,0 -1.84835,1.2024 -1.84835,2.0485 0,0.3998 -0.20815,0.7269 -0.46255,0.7269 -0.2544,0 -0.46255,0.4163 -0.46255,0.9251 0,0.5088 -0.28674,0.9251 -0.6372,0.9251 -0.35045,0 -0.89631,0.3122 -1.21302,0.6938 -0.3167,0.3816 -0.96664,0.6938 -1.44429,0.6938 -0.47766,0 -0.86847,0.1923 -0.86847,0.4274 0,0.235 -1.66568,0.4952 -3.70151,0.5782 -2.73372,0.1114 -3.70123,-4e-4 -3.70043,-0.4274 6e-4,-0.318 -0.32981,-0.5782 -0.73424,-0.5782 -0.94264,0 -2.26654,-1.555 -3.44575,-4.0473 -0.51157,-1.0812 -1.13308,-1.9659 -1.38112,-1.9659 -0.24805,0 -0.451,-0.404 -0.451,-0.8978 0,-0.4938 -0.20814,-1.0264 -0.46255,-1.1836 -0.2544,-0.1573 -0.46255,-0.6899 -0.46255,-1.1837 0,-0.4938 -0.20815,-0.8978 -0.46255,-0.8978 -0.25441,0 -0.46256,-0.4163 -0.46256,-0.9251 0,-0.6402 -0.32054,-0.9364 -1.04074,-0.9617 -0.57241,-0.02 -0.78056,-0.1415 -0.46256,-0.2698 0.31801,-0.1283 0.5782,-0.5914 0.5782,-1.029 0,-0.919 -2.18728,-5.4708 -2.81545,-5.859 -0.23234,-0.1436 -0.42243,-0.6651 -0.42243,-1.1589 0,-0.4938 -0.20815,-0.8978 -0.46255,-0.8978 -0.2544,0 -0.46255,-0.4163 -0.46255,-0.9251 0,-0.5088 -0.20815,-0.9251 -0.46256,-0.9251 -0.2544,0 -0.46255,-0.5141 -0.46255,-1.1423 0,-0.6283 -0.4163,-1.8835 -0.92511,-2.7894 -0.5088,-0.9059 -0.9251,-1.953 -0.9251,-2.3269 0,-0.3738 -0.20815,-0.6797 -0.46256,-0.6797 -0.2544,0 -0.46255,-0.3941 -0.46255,-0.8756 0,-0.4816 -0.31222,-0.9955 -0.69383,-1.1419 -0.3816,-0.1464 -0.69383,-0.6891 -0.69383,-1.2059 0,-0.5168 -0.27617,-0.9396 -0.61372,-0.9396 -0.4188,0 -0.54903,-0.4407 -0.41005,-1.3877 0.12225,-0.8329 -0.002,-1.3876 -0.31139,-1.3876 -0.28328,0 -0.51505,-0.404 -0.51505,-0.8978 0,-0.4938 -0.20815,-1.0265 -0.46255,-1.1837 -0.25441,-0.1572 -0.46256,-0.6899 -0.46256,-1.1837 0,-0.5894 -0.31774,-0.8978 -0.9251,-0.8978 -0.50881,0 -0.92511,-0.2081 -0.92511,-0.4626 0,-0.2544 -0.62445,-0.4625 -1.38766,-0.4625 h -1.38766 v 21.7014 c 0,16.9284 0.12717,21.7528 0.57819,21.9348 0.31801,0.1283 -1.81552,0.2164 -4.74117,0.1958 -2.92565,-0.021 -4.64288,-0.1215 -3.81606,-0.2241 z m 7.51649,-0.8439 c 0,-0.4551 -0.74942,-0.6198 -2.77532,-0.6101 -1.98276,0.01 -2.77532,0.1875 -2.77532,0.6234 0,0.4374 0.78585,0.6102 2.77532,0.6102 2.01933,0 2.77532,-0.1698 2.77532,-0.6235 z m 67.07021,-0.057 c 0,-0.4296 -0.69723,-0.615 -2.31277,-0.615 -1.70705,0 -2.31276,0.1749 -2.31276,0.6676 0,0.4998 0.58138,0.6544 2.31276,0.615 1.58912,-0.036 2.31277,-0.2451 2.31277,-0.6676 z m 1.74138,-8.9409 c 0,-1.9291 -0.17837,-2.7753 -0.585,-2.7753 -0.40662,0 -0.58499,0.8462 -0.58499,2.7753 0,1.9291 0.17837,2.7753 0.58499,2.7753 0.40663,0 0.585,-0.8462 0.585,-2.7753 z m 0.10883,-3.9317 c 0,-0.3816 -0.31222,-0.6939 -0.69383,-0.6939 -0.3816,0 -0.69383,0.3123 -0.69383,0.6939 0,0.3816 0.31223,0.6938 0.69383,0.6938 0.38161,0 0.69383,-0.3122 0.69383,-0.6938 z m -0.0835,-3.0066 c -0.0161,-1.1695 -0.24069,-1.8502 -0.61031,-1.8502 -0.36961,0 -0.59416,0.6807 -0.61031,1.8502 -0.0176,1.2736 0.17261,1.8502 0.61031,1.8502 0.43771,0 0.62789,-0.5766 0.61031,-1.8502 z m 0.0835,-3.0066 c 0,-0.3816 -0.31222,-0.6938 -0.69383,-0.6938 -0.3816,0 -0.69383,0.3122 -0.69383,0.6938 0,0.3816 0.31223,0.6938 0.69383,0.6938 0.38161,0 0.69383,-0.3122 0.69383,-0.6938 z m -0.0835,-3.0066 c -0.0161,-1.1695 -0.24069,-1.8502 -0.61031,-1.8502 -0.36961,0 -0.59416,0.6807 -0.61031,1.8502 -0.0176,1.2736 0.17261,1.8502 0.61031,1.8502 0.43771,0 0.62789,-0.5766 0.61031,-1.8502 z m 0.0835,-3.0066 c 0,-0.3816 -0.31222,-0.6938 -0.69383,-0.6938 -0.3816,0 -0.69383,0.3122 -0.69383,0.6938 0,0.3816 0.31223,0.6938 0.69383,0.6938 0.38161,0 0.69383,-0.3122 0.69383,-0.6938 z m -0.0835,-3.0066 c -0.0161,-1.1694 -0.24069,-1.8502 -0.61031,-1.8502 -0.36961,0 -0.59416,0.6808 -0.61031,1.8502 -0.0176,1.2737 0.17261,1.8502 0.61031,1.8502 0.43771,0 0.62789,-0.5765 0.61031,-1.8502 z m 0.0835,-3.0066 c 0,-0.3816 -0.31222,-0.6938 -0.69383,-0.6938 -0.3816,0 -0.69383,0.3122 -0.69383,0.6938 0,0.3816 0.31223,0.6938 0.69383,0.6938 0.38161,0 0.69383,-0.3122 0.69383,-0.6938 z m -0.12615,-3.0066 c 0,-1.1684 -0.21233,-1.8502 -0.57622,-1.8502 -0.35964,0 -0.58583,0.6954 -0.60177,1.8502 -0.0169,1.2235 0.17829,1.8502 0.57623,1.8502 0.39369,0 0.60176,-0.6397 0.60176,-1.8502 z m 0.12615,-3.0066 c 0,-0.3816 -0.31222,-0.6938 -0.69383,-0.6938 -0.3816,0 -0.69383,0.3122 -0.69383,0.6938 0,0.3816 0.31223,0.6938 0.69383,0.6938 0.38161,0 0.69383,-0.3122 0.69383,-0.6938 z"
           id="path224985"
           transform="scale(0.26458333)" />
        <path
           style="opacity:1;fill:#025f8b;fill-opacity:1;stroke:none;stroke-width:1.16257;stroke-miterlimit:4;stroke-dasharray:none;stroke-opacity:1"
           d="m 732.68426,3310.7245 c 0,-2.5179 0.0908,-2.7753 0.97905,-2.7753 0.75133,0 0.92279,-0.2152 0.73714,-0.9251 -0.22143,-0.8468 -0.0142,-0.9251 2.44679,-0.9251 2.46098,0 2.66822,0.078 2.44679,0.9251 -0.1732,0.6623 -0.0142,0.9251 0.5598,0.9251 0.574,0 0.73301,-0.2628 0.55981,-0.9251 -0.13306,-0.5088 -0.0533,-0.9251 0.17733,-0.9251 0.23059,0 0.41925,0.2081 0.41925,0.4625 0,0.2987 5.24227,0.4626 14.8017,0.4626 14.49333,0 14.8017,-0.019 14.8017,-0.9251 0,-1.0421 0.90596,-1.2178 1.78884,-0.347 0.46937,0.463 0.69524,0.4399 1.13326,-0.1156 0.30088,-0.3816 0.85927,-0.6938 1.24088,-0.6938 0.89094,0 1.20145,-2.0843 0.38739,-2.6003 -0.44504,-0.2821 -0.32659,-0.3941 0.42208,-0.3992 0.96286,-0.01 1.04074,-0.2148 1.04074,-2.7824 0,-2.0861 -0.16275,-2.7754 -0.65528,-2.7754 -0.36041,0 -0.76027,0.2602 -0.88859,0.5782 -0.12832,0.318 -0.24974,0.1099 -0.26982,-0.4625 l -0.0365,-1.0408 h -8.78851 c -5.55064,0 -8.78851,0.1704 -8.78851,0.4626 0,0.2716 -1.57567,0.4596 -3.81606,0.4555 -2.39064,0 -3.57492,-0.1598 -3.17047,-0.4159 0.37364,-0.2366 0.51909,-0.7384 0.34529,-1.1914 -0.26126,-0.6808 -0.93163,-0.762 -5.15601,-0.6248 -3.66049,0.1188 -4.85558,0.015 -4.85519,-0.4205 2.9e-4,-0.318 -0.36982,-0.5782 -0.82247,-0.5782 -0.45265,0 -1.12304,-0.4163 -1.48977,-0.9251 -0.36673,-0.5088 -0.98509,-0.9318 -1.37414,-0.9399 -1.30503,-0.027 -2.32629,-1.2106 -2.32629,-2.6959 0,-0.7988 -0.20815,-1.4523 -0.46255,-1.4523 -0.29651,0 -0.46255,-4.3172 -0.46255,-12.0264 v -12.0264 h 3.70042 3.70043 v 10.87 c 0,8.7621 0.11986,10.87 0.61811,10.87 0.42442,0 0.60561,0.6116 0.57819,1.9516 -0.0326,1.594 0.12836,1.9854 0.87855,2.1364 0.50516,0.1016 1.2581,0.5764 1.6732,1.055 0.79181,0.913 2.72769,1.2023 2.72769,0.4076 0,-0.2544 0.36426,-0.4461 0.80947,-0.426 0.48357,0.022 0.57668,0.1305 0.23128,0.2698 -0.81398,0.3285 -0.71951,1.3907 0.15347,1.7257 0.95474,0.3664 24.41002,0.3664 25.36476,0 0.40241,-0.1544 0.73166,-0.6748 0.73166,-1.1564 0,-0.5672 0.3258,-0.8756 0.92511,-0.8756 0.90455,0 0.9251,-0.3084 0.9251,-13.8766 v -13.8766 h 4.16298 4.16298 v 16.0969 c 0,11.903 0.14461,16.2414 0.55507,16.6519 0.43171,0.4317 0.32892,0.555 -0.46256,0.555 -0.62881,0 -1.01762,0.2857 -1.01762,0.7478 0,0.5201 0.28174,0.6741 0.92511,0.5059 0.57816,-0.1512 0.92511,-0.014 0.92511,0.3653 0,0.3795 -0.34695,0.5165 -0.92511,0.3653 -0.86531,-0.2263 -0.92511,-0.014 -0.92511,3.2811 0,2.0404 -0.19467,3.5231 -0.46255,3.5231 -0.2544,0 -0.46255,0.3529 -0.46255,0.7842 0,1.0592 -2.28229,3.3788 -3.32441,3.3788 -0.46121,0 -0.83857,0.2082 -0.83857,0.4626 0,0.2544 -0.4163,0.4625 -0.92511,0.4625 -0.50881,0 -0.9251,0.2082 -0.9251,0.4626 0,0.2544 -0.63098,0.4625 -1.40218,0.4625 -0.7712,0 -1.50209,0.2602 -1.62421,0.5782 -0.16971,0.442 -2.62474,0.5583 -10.41935,0.4937 -10.08675,-0.084 -10.20173,-0.073 -10.60413,0.9251 l -0.40681,1.0096 -0.0293,-1.0407 c -0.017,-0.6037 -0.32068,-1.0408 -0.72315,-1.0408 -0.40247,0 -0.70614,0.4371 -0.72315,1.0408 l -0.0293,1.0407 -0.43266,-1.0795 c -0.43122,-1.0758 -1.53815,-1.1793 -1.64801,-0.1539 -0.0318,0.2968 -0.0838,0.7478 -0.11564,1.0022 -0.0361,0.2885 -3.10296,0.4625 -8.1525,0.4625 h -8.09468 z m 1.85021,1.3876 c 0,-0.5139 -0.30837,-0.9251 -0.69383,-0.9251 -0.38546,0 -0.69383,0.4112 -0.69383,0.9251 0,0.514 0.30837,0.9252 0.69383,0.9252 0.38546,0 0.69383,-0.4112 0.69383,-0.9252 z m 0,-3.0065 c 0,-0.3817 -0.31222,-0.6939 -0.69383,-0.6939 -0.3816,0 -0.69383,0.3122 -0.69383,0.6939 0,0.3816 0.31223,0.6938 0.69383,0.6938 0.38161,0 0.69383,-0.3122 0.69383,-0.6938 z m 17.95152,-13.9923 c -0.18776,-0.975 -1.00868,-0.9135 -1.21788,0.091 -0.0873,0.4191 0.16772,0.7183 0.61211,0.7183 0.47641,0 0.70328,-0.3032 0.60577,-0.8095 z m 2.20151,0.2952 c 0.34869,-0.5642 -0.69016,-1.4125 -1.2819,-1.0468 -0.20295,0.1254 -0.369,0.528 -0.369,0.8946 0,0.7849 1.19195,0.8948 1.6509,0.1522 z"
           id="path224987"
           transform="scale(0.26458333)" />
        <path
           style="opacity:1;fill:#e48a01;fill-opacity:1;stroke:none;stroke-width:1.16257;stroke-miterlimit:4;stroke-dasharray:none;stroke-opacity:1"
           d="m 795.51156,3296.6927 c -0.69569,-0.529 -0.70085,-0.6344 -0.0512,-1.0442 0.6518,-0.4112 0.6483,-0.5301 -0.0357,-1.2141 -0.45436,-0.4544 -0.75829,-1.5131 -0.75829,-2.6416 v -1.8832 h 18.03957 c 11.71802,0 18.03958,-0.1621 18.03958,-0.4626 0,-0.2544 0.36426,-0.4691 0.80947,-0.4772 1.11261,-0.02 2.4284,-1.0903 2.4284,-1.9749 0,-0.4021 0.20815,-0.8598 0.46255,-1.017 0.667,-0.4122 0.57042,-2.5427 -0.11564,-2.5511 -0.38425,0 -0.34546,-0.1552 0.11564,-0.4485 0.57189,-0.3638 0.59221,-0.6053 0.11564,-1.3743 -0.318,-0.5131 -0.57819,-1.8262 -0.57819,-2.9179 0,-2.0502 -1.08867,-3.5782 -2.54933,-3.5782 -0.3787,0 -0.68854,-0.2082 -0.68854,-0.4626 0,-0.2826 -2.15858,-0.4625 -5.55064,-0.4625 -3.05285,0 -5.55064,-0.1888 -5.55064,-0.4196 0,-0.2308 -2.86205,-0.4455 -6.36011,-0.4772 -3.63281,-0.033 -6.42622,-0.2496 -6.51429,-0.5055 -0.0848,-0.2463 -0.76128,-0.4479 -1.50329,-0.4479 -0.74202,0 -1.34912,-0.2082 -1.34912,-0.4626 0,-0.2544 -0.54102,-0.4625 -1.20226,-0.4625 -1.32752,0 -5.73604,-4.0901 -5.73604,-5.3217 0,-0.3803 -0.20814,-0.6915 -0.46255,-0.6915 -0.2837,0 -0.46255,-2.2357 -0.46255,-5.7819 0,-3.5463 0.17885,-5.782 0.46255,-5.782 0.25441,0 0.46255,-0.4163 0.46255,-0.9251 0,-0.5088 0.20815,-0.9251 0.46256,-0.9251 0.2544,0 0.46255,-0.3271 0.46255,-0.7268 0,-0.8412 1.0834,-2.0485 1.8382,-2.0485 0.28414,0 1.03699,-0.5204 1.673,-1.1564 0.63601,-0.636 1.45915,-1.1564 1.82919,-1.1564 0.37004,0 0.6728,-0.2081 0.6728,-0.4625 0,-0.2544 1.02846,-0.4626 2.28547,-0.4626 1.25701,0 2.41411,-0.2081 2.57134,-0.4625 0.18286,-0.2959 6.9431,-0.4626 18.7607,-0.4626 h 18.47483 v 1.1564 c 0,0.636 -0.20815,1.1564 -0.46255,1.1564 -0.2544,0 -0.46255,0.4163 -0.46255,0.9251 0,0.5088 0.20815,0.9251 0.46255,0.9251 0.2544,0 0.46255,0.4163 0.46255,0.9251 0,0.9052 -0.30837,0.9251 -14.31185,0.9251 -9.04228,0 -14.41711,0.1703 -14.59772,0.4626 -0.15723,0.2544 -2.09489,0.4661 -4.30592,0.4705 -3.6248,0.01 -4.12236,0.116 -5.06078,1.106 -0.8224,0.8676 -1.04075,1.6365 -1.04075,3.6651 0,1.412 -0.18393,2.6809 -0.40873,2.8198 -1.10151,0.6808 0.71244,6.7403 2.01775,6.7403 0.38706,0 0.70375,0.2081 0.70375,0.4625 0,0.2544 1.14482,0.4626 2.54404,0.4626 1.39922,0 2.54404,0.2081 2.54404,0.4625 0,0.2926 3.31497,0.4626 9.01979,0.4626 5.70482,0 9.01979,0.17 9.01979,0.4625 0,0.2545 1.02846,0.4626 2.28546,0.4626 1.25701,0 2.41412,0.2082 2.57135,0.4626 0.15723,0.2544 0.68988,0.4625 1.18368,0.4625 0.49379,0 0.89781,0.2082 0.89781,0.4626 0,0.2544 0.28248,0.4625 0.62775,0.4625 0.34526,0 1.69823,1.0705 3.00659,2.3789 l 2.37885,2.3788 v 6.1784 c 0,3.8106 -0.17727,6.1784 -0.46256,6.1784 -0.2544,0 -0.46255,0.2983 -0.46255,0.663 0,0.9077 -4.39195,5.3502 -5.28933,5.3502 -0.39812,0 -0.72386,0.2081 -0.72386,0.4625 0,0.2544 -0.63098,0.4626 -1.40218,0.4626 -0.81968,0 -1.51278,0.2882 -1.66842,0.6938 -0.22462,0.5854 -1.74105,0.6938 -9.6991,0.6938 -5.9802,0 -9.43285,0.1693 -9.43285,0.4626 0,0.7326 -19.45907,0.5848 -20.43228,-0.1552 z"
           id="path224989"
           transform="scale(0.26458333)" />
        <path
           style="opacity:1;fill:#e48a01;fill-opacity:1;stroke:none;stroke-width:1.16257;stroke-miterlimit:4;stroke-dasharray:none;stroke-opacity:1"
           d="m 903.82894,3304.7113 c 0,-0.2544 -0.72852,-0.4626 -1.61893,-0.4626 -0.89042,0 -1.61894,-0.2081 -1.61894,-0.4625 0,-0.2544 -0.32709,-0.4626 -0.72687,-0.4626 -0.72912,0 -2.04845,-1.0508 -2.04845,-1.6316 0,-0.1705 -0.60357,-0.8618 -1.34128,-1.5363 -3.28452,-3.003 -2.67891,-2.8453 -10.92167,-2.8453 -4.77619,0 -7.62684,-0.1728 -7.62684,-0.4625 0,-0.6693 -1.72995,-0.5695 -2.00642,0.1156 -0.18665,0.4626 -0.24061,0.4626 -0.26983,0 -0.0271,-0.4294 -1.50941,-0.5782 -5.76179,-0.5782 -4.52484,0 -5.84601,-0.1454 -6.30111,-0.6938 -0.3167,-0.3816 -0.96946,-0.6938 -1.45057,-0.6938 -0.97823,0 -2.43483,-0.7502 -3.81682,-1.9659 -0.50613,-0.4452 -1.29729,-0.8094 -1.75812,-0.8094 -0.52952,0 -0.83789,-0.3405 -0.83789,-0.9251 0,-0.5089 -0.20815,-0.9252 -0.46255,-0.9252 -0.25441,0 -0.46256,-0.404 -0.46256,-0.8978 0,-0.4938 -0.20815,-1.0264 -0.46255,-1.1836 -0.27108,-0.1676 -0.46255,-2.8482 -0.46255,-6.4758 0,-3.6276 -0.19147,-6.3082 -0.46256,-6.4757 -0.62044,-0.3835 -0.62044,-12.2577 0,-12.2577 0.27184,0 0.46256,-1.6098 0.46256,-3.9044 0,-2.1474 0.20815,-4.033 0.46255,-4.1903 0.2544,-0.1572 0.46255,-0.8165 0.46255,-1.4651 0,-0.814 0.68044,-1.8068 2.19713,-3.2056 1.20842,-1.1145 2.43183,-2.0286 2.71868,-2.0314 0.28686,0 0.78068,-0.3171 1.09739,-0.6987 0.3167,-0.3816 1.05842,-0.6939 1.64827,-0.6939 0.58985,0 1.20109,-0.2081 1.35832,-0.4625 0.15723,-0.2544 1.71835,-0.4626 3.46915,-0.4626 1.7508,0 3.31192,-0.2081 3.46915,-0.4625 0.39005,-0.6311 23.35894,-0.6311 23.35894,0 0,0.2609 1.31056,0.4625 3.00659,0.4625 1.65363,0 3.0066,0.1839 3.0066,0.4086 0,0.2248 0.36426,0.5419 0.80946,0.7049 1.24089,0.454 4.57609,2.3334 5.88373,3.3154 0.74666,0.5607 1.17021,1.3314 1.17021,2.1294 0,0.6878 0.20815,1.3792 0.46255,1.5364 0.26476,0.1637 0.46256,2.5489 0.46256,5.578 0,3.2196 0.18113,5.292 0.46255,5.292 0.28848,0 0.46255,2.6983 0.46255,7.1696 0,4.4713 -0.17407,7.1696 -0.46255,7.1696 -0.28033,0 -0.46255,2.0044 -0.46255,5.0881 0,3.0836 -0.18222,5.088 -0.46256,5.088 -0.2544,0 -0.46255,0.3217 -0.46255,0.7149 0,0.687 -1.96789,2.9856 -2.55605,2.9856 -0.15694,0 -0.5827,0.2973 -0.94614,0.6608 -1.38725,1.3872 -0.74291,2.6363 3.50219,6.7895 2.28964,2.24 4.16298,4.186 4.16298,4.3244 0,0.1384 -1.87334,0.2517 -4.16298,0.2517 -2.46695,0 -4.16298,-0.1885 -4.16298,-0.4626 z m -19.88979,-15.3607 c 0,-0.7091 -4.45578,-4.9867 -5.21461,-5.0062 -0.31202,-0.01 -0.94128,-0.5283 -1.39836,-1.1564 l -0.83106,-1.1418 h 5.34095 c 3.25227,0 5.34096,0.1809 5.34096,0.4625 0,0.2544 0.34087,0.4626 0.75749,0.4626 0.41662,0 1.37978,0.7285 2.14035,1.6189 0.76057,0.8904 1.63772,1.619 1.94922,1.619 0.3115,0 1.21979,0.6244 2.01842,1.3876 2.92189,2.7923 4.69835,1.5806 4.69835,-3.2048 0,-1.8722 0.19779,-3.2709 0.46255,-3.2709 0.29467,0 0.46255,-3.7775 0.46255,-10.4075 0,-6.6299 -0.16788,-10.4074 -0.46255,-10.4074 -0.2544,0 -0.46255,-1.1448 -0.46255,-2.5441 0,-1.3992 -0.20815,-2.544 -0.46256,-2.544 -0.2544,0 -0.46255,-0.4163 -0.46255,-0.9251 0,-0.5326 -0.30837,-0.9251 -0.72687,-0.9251 -0.39978,0 -1.03909,-0.3122 -1.4207,-0.6938 -1.04188,-1.0419 -26.53073,-1.0419 -26.53073,0 0,0.3934 -0.41483,0.6938 -0.95814,0.6938 -1.29525,0 -2.27973,1.0726 -2.27973,2.4837 0,0.6392 -0.20815,1.2908 -0.46255,1.448 -0.63033,0.3896 -0.63033,27.3636 0,27.7532 0.2544,0.1572 0.46255,0.8218 0.46255,1.4768 0,0.7256 0.49701,1.6183 1.27202,2.2849 1.22792,1.056 1.54064,1.094 9.01979,1.0945 5.74841,5e-4 7.74776,-0.1437 7.74776,-0.5584 z"
           id="path224991"
           transform="scale(0.26458333)" />
        <path
           style="opacity:1;fill:#e48a01;fill-opacity:1;stroke:none;stroke-width:1.16257;stroke-miterlimit:4;stroke-dasharray:none;stroke-opacity:1"
           d="m 943.64503,3296.9635 c -0.0276,-0.4367 -1.83463,-0.5782 -7.38788,-0.5782 -6.10784,0 -7.3964,-0.1173 -7.61761,-0.6938 -0.15564,-0.4056 -0.84874,-0.6938 -1.66842,-0.6938 -0.7712,0 -1.40218,-0.2082 -1.40218,-0.4626 0,-0.2544 -0.4163,-0.4625 -0.9251,-0.4625 -0.50881,0 -0.92511,-0.2082 -0.92511,-0.4626 0,-0.2544 -0.31916,-0.4625 -0.70925,-0.4625 -1.35196,0 -3.99679,-3.1818 -4.25691,-5.1211 -0.13405,-0.9995 -0.42448,-1.8172 -0.64538,-1.8172 -0.22115,0 -0.40165,-9.2504 -0.40165,-20.5836 v -20.5837 h 5.08808 5.08809 v 19.4273 c 0,12.6431 0.16152,19.4272 0.46255,19.4272 0.25441,0 0.46255,0.8003 0.46255,1.7785 0,1.8827 1.06268,3.3096 2.46483,3.3096 0.42518,0 0.77305,0.2081 0.77305,0.4625 0,0.3004 6.36483,0.4651 18.15521,0.4697 11.07214,0 17.896,0.1711 17.49081,0.4275 -0.87113,0.5512 -0.98378,5.1338 -0.13422,5.4599 0.43816,0.1681 0.37806,0.3923 -0.22853,0.8525 -1.01716,0.7717 -19.55646,0.953 -19.55646,0.1913 0,-0.677 -3.58014,-0.5696 -3.85664,0.1156 -0.18665,0.4626 -0.24061,0.4626 -0.26983,0 z"
           id="path224993"
           transform="scale(0.26458333)" />
      </g>
    </g>
  </g>
</svg>
