<?xml version="1.0" encoding="UTF-8" standalone="no"?>
<!-- Created with Inkscape (http://www.inkscape.org/) -->

<svg
   width="150"
   height="100"
   viewBox="0 0 39.6875 26.458334"
   version="1.1"
   id="svg2922"
   inkscape:version="1.1.2 (b8e25be833, 2022-02-05)"
   sodipodi:docname="php.svg"
   xmlns:inkscape="http://www.inkscape.org/namespaces/inkscape"
   xmlns:sodipodi="http://sodipodi.sourceforge.net/DTD/sodipodi-0.dtd"
   xmlns="http://www.w3.org/2000/svg"
   xmlns:svg="http://www.w3.org/2000/svg">
  <sodipodi:namedview
     id="namedview2924"
     pagecolor="#505050"
     bordercolor="#ffffff"
     borderopacity="1"
     inkscape:pageshadow="0"
     inkscape:pageopacity="0"
     inkscape:pagecheckerboard="1"
     inkscape:document-units="mm"
     showgrid="false"
     units="px"
     inkscape:zoom="4.0718557"
     inkscape:cx="66.677215"
     inkscape:cy="46.0478"
     inkscape:window-width="1920"
     inkscape:window-height="1001"
     inkscape:window-x="-9"
     inkscape:window-y="-9"
     inkscape:window-maximized="1"
     inkscape:current-layer="layer1" />
  <defs
     id="defs2919" />
  <g
     inkscape:label="Layer 1"
     inkscape:groupmode="layer"
     id="layer1">
    <path
       id="path217883"
       style="fill:#000000;fill-opacity:1;stroke:none;stroke-width:0.279325;stroke-miterlimit:4;stroke-dasharray:none;stroke-opacity:1"
       d="M 19.790931,4.6083004 A 16.486443,8.5823044 0 0 0 3.3044095,13.19064 16.486443,8.5823044 0 0 0 19.790931,21.77299 16.486443,8.5823044 0 0 0 36.277271,13.19064 16.486443,8.5823044 0 0 0 19.790931,4.6083004 Z m -0.31538,3.27175 h 0.86322 l -0.11968,0.60787 c -0.35598,1.8096996 -0.34699,1.8241696 1.13219,1.8241696 1.3817,0 2.37203,0.34737 2.69153,0.94438 0.23469,0.43852 0.2043,0.78267 -0.32565,3.68587 l -0.31598,1.73038 h -0.90606 -0.90627 l 0.1177,-0.70148 c 0.0648,-0.38582 0.18737,-0.95425 0.27233,-1.26292 0.085,-0.3087 0.16071,-0.68736 0.16827,-0.84168 0.007,-0.15435 0.0652,-0.54458 0.12836,-0.86716 0.19712,-1.0076 -0.15433,-1.37785 -1.30815,-1.37785 -1.06443,0 -1.42253,0.23051 -1.5321,0.98604 -0.0332,0.22937 -0.23055,1.16402 -0.43841,2.07695 -0.20787,0.91294 -0.33247,1.73369 -0.27668,1.82399 0.0558,0.0903 -0.32033,0.16411 -0.83596,0.16411 h -0.93746 l 0.063,-0.60806 c 0.0346,-0.33439 0.11178,-0.73415 0.17161,-0.88849 0.0598,-0.15435 0.15118,-0.61751 0.20282,-1.0291 0.0516,-0.41155 0.3483,-1.96899 0.65941,-3.46094 0.31111,-1.4919896 0.56648,-2.7337596 0.56737,-2.7594696 0.001,-0.0256 0.38989,-0.0466 0.86459,-0.0466 z m -9.176972,1.73176 h 2.430272 c 1.33666,0 2.55025,0.0422 2.69685,0.0936 0.14661,0.0514 0.50439,0.3572796 0.79509,0.6795396 0.43572,0.48305 0.52847,0.755 0.52847,1.54928 0,0.52992 -0.12186,1.25544 -0.27095,1.61228 -0.14909,0.35682 -0.23312,0.64874 -0.18663,0.64874 0.21715,0 -1.38451,1.26029 -1.88085,1.47996 -0.33633,0.14886 -1.13719,0.23475 -1.99836,0.21447 -1.638591,-0.0386 -1.754631,0.0535 -1.887572,1.49634 l -0.0766,0.83142 -0.8717095,0.0571 c -0.62232,0.0407 -0.87076,-0.013 -0.86874,-0.18701 0.002,-0.13427 0.1777,-1.17025 0.39142,-2.3021 0.21372,-1.13183 0.41016,-2.22624 0.43663,-2.43204 0.0265,-0.20578 0.0995,-0.50032 0.16234,-0.65466 0.0628,-0.15434 0.22359,-0.91207 0.3572495,-1.68376 z m 16.824812,0.19847 c 0.33083,0.003 0.71165,0.0126 1.1393,0.0276 2.41897,0.0851 2.70412,0.13149 3.07288,0.5002396 0.59974,0.59976 0.77028,1.00142 0.82115,1.93457 0.0814,1.49309 -0.89842,3.09909 -2.23317,3.6604 -0.36138,0.15199 -1.25057,0.26522 -2.0817,0.26522 -0.94765,0 -1.51951,0.0828 -1.64881,0.23857 -0.10888,0.13119 -0.25631,0.67832 -0.32763,1.21592 l -0.12975,0.97756 h -0.81779 c -0.64566,0 -0.82242,-0.0689 -0.8399,-0.32744 -0.0122,-0.18006 -0.002,-0.41157 0.0233,-0.51445 0.25418,-1.04841 0.36286,-1.61541 0.43764,-2.28175 0.0485,-0.43184 0.13778,-0.86551 0.19846,-0.96374 0.10505,-0.16993 0.59758,-2.61644 0.64598,-3.20874 0.0126,-0.15432 0.0587,-0.49104 0.1025,-0.74828 0.0438,-0.25723 0.0866,-0.55195 0.095,-0.6548596 0.007,-0.09 0.55007,-0.13122 1.54257,-0.12086 z M 13.415501,10.8384 c -0.0435,-2.5e-4 -0.0892,-1.3e-4 -0.13706,3.8e-4 -0.10935,10e-4 -0.23047,0.004 -0.36554,0.009 -1.163961,0.0377 -1.215931,0.0596 -1.243961,0.52433 -0.0665,1.10049 -0.11638,1.45237 -0.29662,2.09296 -0.33228,1.18089 -0.007,1.36408 1.873341,1.05377 0.91463,-0.15097 1.49189,-0.84408 1.71023,-2.05365 0.10775,-0.59693 0.0555,-0.77289 -0.35074,-1.17919 -0.34846,-0.34847 -0.53672,-0.44366 -1.18965,-0.4473 z m 14.82409,0.31024 c -0.59925,0.0174 -1.12241,0.14024 -1.13337,0.35607 -0.0295,0.58061 -0.33356,2.41318 -0.50459,3.04148 -0.13,0.47751 0.87267,0.66256 1.93656,0.35744 0.3302,-0.0947 0.82673,-0.39839 1.10335,-0.67499 0.51012,-0.51015 0.91067,-1.88049 0.6049,-2.06946 -0.0912,-0.0564 -0.11961,-0.17713 -0.0632,-0.26838 0.0564,-0.0913 -0.10309,-0.30069 -0.35429,-0.46528 -0.31494,-0.20635 -0.99013,-0.2943 -1.58936,-0.27688 z" />
  </g>
</svg>
